<svg width="148" height="402" viewBox="0 0 148 402" fill="none" xmlns="http://www.w3.org/2000/svg">
<g clip-path="url(#clip0_4_3850)">
<mask id="mask0_4_3850" style="mask-type:alpha" maskUnits="userSpaceOnUse" x="0" y="0" width="148" height="402">
<path d="M21.5408 1.59521H125.763C136.629 1.59521 145.438 10.4038 145.438 21.2698V380.73C145.438 391.596 136.629 400.405 125.763 400.405H21.5408C10.6748 400.405 1.86621 391.596 1.86621 380.73V21.2698C1.86621 10.4038 10.6748 1.59521 21.5408 1.59521Z" fill="#0A090F" stroke="url(#paint0_linear_4_3850)" stroke-width="3.19048"/>
</mask>
<g mask="url(#mask0_4_3850)">
<path d="M56.3747 244.736C59.4757 245.801 60.7741 247.106 60.938 247.93C61.0892 248.665 60.4841 250.235 58.2781 252.276C56.0973 253.632 53.8031 254.975 51.471 256.331C45.627 259.621 39.9823 263.256 34.5666 267.217C-8.29306 300.064 -31.0086 344.038 -32.8869 397.908C-33.2272 407.678 -36.2778 410.668 -45.9591 410.694H-48.4802C-59.7246 410.72 -71.3472 410.745 -82.768 410.669C-87.4447 410.631 -90.8988 409.49 -92.7014 407.602C-94.504 405.714 -95.3486 402.609 -95.2099 398.364C-93.0669 335.027 -70.4523 281.397 -27.8573 238.577C-21.899 232.588 -15.5539 226.817 -8.82253 221.267C-5.2929 218.352 -3.36423 218.187 0.594009 220.443C18.3785 230.302 37.0564 238.436 56.3747 244.736Z" fill="url(#paint1_linear_4_3850)"/>
<path d="M-48.2788 145.942L-45.6694 149.123C-40.4544 155.744 -34.9048 162.093 -29.0423 168.143C15.1283 210.799 68.2618 233.267 128.883 234.953C133.56 235.067 136.761 234.231 138.69 232.342L138.766 232.267C140.682 230.34 141.628 227.058 141.653 222.242L141.665 221.9C141.716 209.43 141.741 196.479 141.665 183.883C141.552 176.165 138.01 172.605 130.207 172.363C80.1111 171.046 38.1843 151.049 5.54792 112.943C-2.24337 103.622 -9.01379 93.4844 -14.6465 82.7063C-16.8777 78.5624 -18.2518 77.8655 -20.0544 78.0049C-21.8571 78.1443 -22.2479 79.0186 -23.6723 83.2639C-30.2542 103.127 -38.6035 122.353 -48.6192 140.709C-50.0058 143.217 -49.7411 144.143 -48.2788 145.942Z" fill="url(#paint2_linear_4_3850)"/>
<path d="M141.818 282.829C141.802 278.791 141.797 274.749 141.806 270.701C141.868 269.24 141.627 267.782 141.1 266.419C140.573 265.055 139.77 263.817 138.742 262.781C136.7 260.881 133.926 260.018 129.641 260.095C94.3445 260.095 59.1239 275.377 33.093 301.547C6.99899 327.778 -7.97672 363.109 -7.90108 398.516C-7.91366 407.298 -4.63615 410.593 4.16267 410.643C17.4618 410.758 30.5466 410.732 43.0516 410.606C50.741 410.478 53.9682 407.438 54.4221 399.606C56.9936 355.049 86.3146 325.599 130.914 322.709C138.414 322.24 141.679 319.009 141.729 311.836C141.843 302.269 141.893 292.46 141.818 282.829Z" fill="url(#paint3_linear_4_3850)"/>
<path d="M-7.93926 9.68782C-6.94338 41.4322 3.11608 69.5396 21.9113 93.1737C49.6188 127.998 86.2133 146.208 130.7 147.311C132.183 147.567 133.707 147.468 135.146 147.021C136.586 146.575 137.9 145.793 138.982 144.74C140.064 143.686 140.884 142.392 141.374 140.96C141.864 139.528 142.012 138.001 141.805 136.5C141.994 122.27 141.994 108.432 141.792 95.328C141.679 88.3202 138.389 84.886 131.682 84.8353C111.143 84.6554 91.5015 76.3508 77.0083 61.7194C62.5152 47.088 54.3373 27.3072 54.2451 6.65907C54.2451 -1.27387 48.7868 -3.06062 44.2488 -3.11131C35.817 -3.26901 27.2708 -3.26576 18.8296 -3.2625H18.8245L18.8215 -3.26247L18.815 -3.26244C16.4081 -3.2615 14.0097 -3.2606 11.6249 -3.2634L1.76721 -3.2127C0.466067 -3.23238 -0.825335 -2.98528 -2.02826 -2.48631C-3.23115 -1.98735 -4.32024 -1.24706 -5.22898 -0.310743C-7.34675 1.94494 -8.15354 4.83427 -7.93926 9.68782Z" fill="url(#paint4_linear_4_3850)"/>
<path d="M135.01 52.0138C124.711 60.0608 107.479 58.1725 95.7935 47.6671C84.4357 37.4658 80.0992 25.4777 82.5447 11.0565L82.5952 10.727L82.7969 10.2962C88.3434 -2.14817 97.5204 -5.51903 104.227 -6.17801C116.215 -7.3312 129.867 -0.576725 137.443 10.2582C148.22 25.6552 147.251 42.4208 135.01 52.0138Z" fill="url(#paint5_linear_4_3850)"/>
<path d="M95.7936 359.611C85.5704 369.889 80.9567 380.559 81.9273 391.293C82.4071 397.144 84.9717 402.624 89.1497 406.726C93.3276 410.829 98.838 413.277 104.668 413.622C109.969 413.747 115.241 412.786 120.159 410.795C125.078 408.804 129.541 405.825 133.276 402.042C137.011 398.259 139.94 393.749 141.883 388.79C143.827 383.83 144.744 378.524 144.578 373.196C144.204 367.341 141.722 361.822 137.594 357.673C133.467 353.524 127.977 351.028 122.152 350.652C117.379 350.208 112.568 350.776 108.027 352.319C103.487 353.863 99.3189 356.346 95.7936 359.611Z" fill="url(#paint6_linear_4_3850)"/>
</g>
</g>
<defs>
<linearGradient id="paint0_linear_4_3850" x1="75.4395" y1="359.952" x2="66.1397" y2="15.9811" gradientUnits="userSpaceOnUse">
<stop stop-color="#D95DB0"/>
<stop offset="1" stop-color="#3344DC"/>
</linearGradient>
<linearGradient id="paint1_linear_4_3850" x1="36.7187" y1="372.341" x2="223.592" y2="80.1976" gradientUnits="userSpaceOnUse">
<stop stop-color="#D95DB0"/>
<stop offset="1" stop-color="#3344DC"/>
</linearGradient>
<linearGradient id="paint2_linear_4_3850" x1="36.7185" y1="372.341" x2="223.592" y2="80.1976" gradientUnits="userSpaceOnUse">
<stop stop-color="#D95DB0"/>
<stop offset="1" stop-color="#3344DC"/>
</linearGradient>
<linearGradient id="paint3_linear_4_3850" x1="36.7191" y1="372.341" x2="223.593" y2="80.1976" gradientUnits="userSpaceOnUse">
<stop stop-color="#D95DB0"/>
<stop offset="1" stop-color="#3344DC"/>
</linearGradient>
<linearGradient id="paint4_linear_4_3850" x1="36.7191" y1="372.341" x2="223.593" y2="80.1976" gradientUnits="userSpaceOnUse">
<stop stop-color="#D95DB0"/>
<stop offset="1" stop-color="#3344DC"/>
</linearGradient>
<linearGradient id="paint5_linear_4_3850" x1="36.7188" y1="372.341" x2="223.592" y2="80.1976" gradientUnits="userSpaceOnUse">
<stop stop-color="#D95DB0"/>
<stop offset="1" stop-color="#3344DC"/>
</linearGradient>
<linearGradient id="paint6_linear_4_3850" x1="36.7188" y1="372.341" x2="223.592" y2="80.1975" gradientUnits="userSpaceOnUse">
<stop stop-color="#D95DB0"/>
<stop offset="1" stop-color="#3344DC"/>
</linearGradient>
<clipPath id="clip0_4_3850">
<rect width="146.762" height="402" fill="white" transform="translate(0.270508)"/>
</clipPath>
</defs>
</svg>
