<svg width="49" height="46" viewBox="0 0 49 46" fill="none" xmlns="http://www.w3.org/2000/svg">
<g opacity="0.55496" clip-path="url(#clip0_4_3990)">
<path d="M38.5457 24.0838C32.7796 24.0838 28.1061 28.7574 28.1061 34.5225C28.1061 40.2882 32.7796 44.9627 38.5457 44.9627C44.3109 44.9627 48.9844 40.2882 48.9844 34.5225C48.9844 28.7574 44.3109 24.0838 38.5457 24.0838ZM11.4236 24.0844C5.65838 24.0849 0.984375 28.7574 0.984375 34.523C0.984375 40.2882 5.65838 44.9622 11.4236 44.9622C17.1892 44.9622 21.8633 40.2882 21.8633 34.523C21.8633 28.7573 17.1892 24.0844 11.4231 24.0844H11.4236ZM35.4236 11.0349C35.4236 16.8 30.7501 21.475 24.9849 21.475C19.2188 21.475 14.5453 16.8 14.5453 11.0349C14.5453 5.26971 19.2188 0.595703 24.9849 0.595703C30.7501 0.595703 35.4231 5.26971 35.4231 11.0349H35.4236Z" fill="url(#paint0_radial_4_3990)"/>
</g>
<defs>
<radialGradient id="paint0_radial_4_3990" cx="0" cy="0" r="1" gradientUnits="userSpaceOnUse" gradientTransform="translate(24.9909 24.8709) scale(31.824 29.4154)">
<stop stop-color="#FFB900"/>
<stop offset="0.6" stop-color="#F95D8F"/>
<stop offset="0.999" stop-color="#F95353"/>
</radialGradient>
<clipPath id="clip0_4_3990">
<rect width="48" height="45" fill="white" transform="translate(0.984375 0.59375)"/>
</clipPath>
</defs>
</svg>
