<svg width="50" height="49" viewBox="0 0 50 49" fill="none" xmlns="http://www.w3.org/2000/svg">
<g opacity="0.99494">
<path d="M13.788 34.9188L16.7253 31.312L7.26941 23.879L16.7253 16.446L13.788 12.8392L2.03856 22.0756C1.76327 22.292 1.54103 22.5663 1.38829 22.8785C1.23556 23.1906 1.15625 23.5327 1.15625 23.879C1.15625 24.2254 1.23556 24.5674 1.38829 24.8797C1.54103 25.1917 1.76327 25.4661 2.03856 25.6826L13.788 34.9188ZM35.5243 12.8392L32.5871 16.446L42.043 23.879L32.5871 31.312L35.5243 34.9188L47.2739 25.6826C47.5491 25.4661 47.7714 25.1917 47.924 24.8797C48.077 24.5674 48.1562 24.2254 48.1562 23.879C48.1562 23.5327 48.077 23.1906 47.924 22.8785C47.7714 22.5663 47.5491 22.292 47.2739 22.0756L35.5243 12.8392ZM31.6495 3.59589L22.2498 45.1598L17.6607 44.1577L27.0602 2.59375L31.6495 3.59589Z" fill="white"/>
</g>
</svg>
