<svg width="318" height="56" viewBox="0 0 318 56" fill="none" xmlns="http://www.w3.org/2000/svg">
<rect width="318" height="56" rx="28" fill="url(#paint0_linear_4_3875)"/>
<path d="M43.913 34.1871C42.9994 34.1871 42.2126 33.992 41.5526 33.6016C40.8965 33.2071 40.3894 32.6538 40.0312 31.9414C39.6771 31.225 39.5 30.3859 39.5 29.424C39.5 28.4742 39.6771 27.6371 40.0312 26.9126C40.3894 26.1882 40.8885 25.6228 41.5284 25.2163C42.1723 24.8098 42.925 24.6065 43.7862 24.6065C44.3094 24.6065 44.8165 24.6931 45.3075 24.8661C45.7985 25.0392 46.2392 25.3108 46.6296 25.6811C47.02 26.0514 47.3279 26.5323 47.5533 27.1239C47.7786 27.7115 47.8913 28.4259 47.8913 29.267V29.907H40.5202V28.5547H46.1225C46.1225 28.0798 46.0259 27.6592 45.8327 27.293C45.6396 26.9227 45.3679 26.6309 45.0178 26.4176C44.6716 26.2043 44.2652 26.0977 43.7983 26.0977C43.2912 26.0977 42.8485 26.2224 42.4702 26.4719C42.0959 26.7174 41.8061 27.0394 41.6009 27.4379C41.3996 27.8323 41.299 28.2609 41.299 28.7237V29.7802C41.299 30.4 41.4077 30.9272 41.625 31.3619C41.8464 31.7965 42.1542 32.1286 42.5487 32.358C42.9431 32.5833 43.4039 32.696 43.9311 32.696C44.2732 32.696 44.5851 32.6477 44.8668 32.5511C45.1486 32.4505 45.392 32.3016 45.5973 32.1044C45.8026 31.9072 45.9595 31.6637 46.0682 31.3739L47.7766 31.6818C47.6398 32.1849 47.3943 32.6256 47.0401 33.0039C46.69 33.3782 46.2493 33.67 45.718 33.8793C45.1908 34.0845 44.5891 34.1871 43.913 34.1871ZM51.6991 28.4943V34H49.8941V24.7273H51.6267V26.2365H51.7414C51.9547 25.7455 52.2887 25.3511 52.7435 25.0533C53.2023 24.7554 53.7799 24.6065 54.4761 24.6065C55.108 24.6065 55.6614 24.7393 56.1363 25.005C56.6112 25.2666 56.9794 25.657 57.241 26.1761C57.5026 26.6953 57.6334 27.3372 57.6334 28.1019V34H55.8284V28.3192C55.8284 27.6471 55.6533 27.1219 55.3032 26.7436C54.953 26.3613 54.4721 26.1701 53.8604 26.1701C53.4418 26.1701 53.0695 26.2607 52.7435 26.4418C52.4215 26.6229 52.166 26.8885 51.9768 27.2386C51.7917 27.5848 51.6991 28.0033 51.6991 28.4943ZM71.5018 26.9911L69.8658 27.2809C69.7973 27.0716 69.6887 26.8724 69.5398 26.6832C69.3949 26.4941 69.1977 26.3391 68.9482 26.2184C68.6986 26.0977 68.3867 26.0373 68.0124 26.0373C67.5013 26.0373 67.0747 26.152 66.7326 26.3814C66.3905 26.6068 66.2195 26.8986 66.2195 27.2567C66.2195 27.5666 66.3342 27.8162 66.5636 28.0053C66.793 28.1945 67.1632 28.3494 67.6744 28.4702L69.1474 28.8082C70.0006 29.0054 70.6365 29.3093 71.055 29.7198C71.4736 30.1303 71.6829 30.6636 71.6829 31.3196C71.6829 31.875 71.5219 32.37 71.1999 32.8047C70.882 33.2353 70.4373 33.5734 69.8658 33.8189C69.2983 34.0644 68.6403 34.1871 67.8917 34.1871C66.8533 34.1871 66.0062 33.9658 65.3501 33.5231C64.6941 33.0763 64.2917 32.4425 64.1428 31.6214L65.8874 31.3558C65.9961 31.8106 66.2195 32.1547 66.5575 32.3881C66.8956 32.6175 67.3363 32.7322 67.8796 32.7322C68.4712 32.7322 68.9441 32.6095 69.2983 32.364C69.6525 32.1145 69.8295 31.8106 69.8295 31.4524C69.8295 31.1626 69.7209 30.9192 69.5036 30.7219C69.2902 30.5247 68.9622 30.3758 68.5195 30.2752L66.9499 29.9311C66.0846 29.7339 65.4447 29.42 65.0302 28.9893C64.6197 28.5587 64.4144 28.0134 64.4144 27.3533C64.4144 26.806 64.5674 26.3271 64.8732 25.9165C65.1791 25.506 65.6017 25.1861 66.141 24.9567C66.6803 24.7232 67.2981 24.6065 67.9943 24.6065C68.9964 24.6065 69.7853 24.8239 70.3608 25.2585C70.9363 25.6892 71.3166 26.2667 71.5018 26.9911ZM76.366 34.2053C75.7784 34.2053 75.2472 34.0966 74.7723 33.8793C74.2974 33.6579 73.9211 33.3379 73.6434 32.9194C73.3697 32.5008 73.2329 31.9877 73.2329 31.38C73.2329 30.8568 73.3335 30.4261 73.5347 30.0881C73.7359 29.75 74.0076 29.4824 74.3497 29.2852C74.6918 29.0879 75.0741 28.939 75.4967 28.8384C75.9193 28.7378 76.3499 28.6613 76.7886 28.609C77.344 28.5446 77.7948 28.4923 78.1409 28.4521C78.487 28.4078 78.7385 28.3374 78.8955 28.2408C79.0525 28.1442 79.1309 27.9872 79.1309 27.7699V27.7276C79.1309 27.2004 78.982 26.7919 78.6842 26.5021C78.3904 26.2124 77.9517 26.0675 77.3682 26.0675C76.7604 26.0675 76.2815 26.2023 75.9314 26.4719C75.5853 26.7376 75.3458 27.0334 75.213 27.3594L73.5166 26.973C73.7178 26.4096 74.0116 25.9548 74.398 25.6087C74.7884 25.2585 75.2371 25.005 75.7442 24.848C76.2513 24.687 76.7846 24.6065 77.344 24.6065C77.7143 24.6065 78.1067 24.6508 78.5212 24.7393C78.9398 24.8239 79.3302 24.9808 79.6924 25.2102C80.0586 25.4396 80.3585 25.7676 80.5919 26.1942C80.8253 26.6168 80.942 27.1662 80.942 27.8423V34H79.1792V32.7322H79.1068C78.9901 32.9657 78.815 33.1951 78.5816 33.4205C78.3482 33.6458 78.0483 33.833 77.6821 33.9819C77.3158 34.1308 76.8772 34.2053 76.366 34.2053ZM76.7584 32.7564C77.2575 32.7564 77.6841 32.6578 78.0383 32.4606C78.3965 32.2634 78.6681 32.0058 78.8532 31.6879C79.0424 31.3659 79.137 31.0218 79.137 30.6555V29.4602C79.0726 29.5246 78.9478 29.585 78.7627 29.6413C78.5816 29.6937 78.3743 29.7399 78.1409 29.7802C77.9075 29.8164 77.6801 29.8506 77.4587 29.8828C77.2374 29.911 77.0522 29.9351 76.9033 29.9553C76.5532 29.9995 76.2332 30.074 75.9434 30.1786C75.6577 30.2833 75.4283 30.4342 75.2552 30.6314C75.0862 30.8246 75.0017 31.0821 75.0017 31.4041C75.0017 31.8509 75.1667 32.1889 75.4967 32.4183C75.8267 32.6437 76.2473 32.7564 76.7584 32.7564ZM90.9467 24.7273L87.5842 34H85.6523L82.2837 24.7273H84.2216L86.57 31.8629H86.6665L89.0089 24.7273H90.9467ZM96.2336 34.1871C95.3643 34.1871 94.6056 33.9879 93.9577 33.5895C93.3097 33.1911 92.8066 32.6336 92.4484 31.9173C92.0902 31.2009 91.9111 30.3638 91.9111 29.4059C91.9111 28.444 92.0902 27.6029 92.4484 26.8825C92.8066 26.162 93.3097 25.6026 93.9577 25.2042C94.6056 24.8058 95.3643 24.6065 96.2336 24.6065C97.1029 24.6065 97.8615 24.8058 98.5095 25.2042C99.1575 25.6026 99.6605 26.162 100.019 26.8825C100.377 27.6029 100.556 28.444 100.556 29.4059C100.556 30.3638 100.377 31.2009 100.019 31.9173C99.6605 32.6336 99.1575 33.1911 98.5095 33.5895C97.8615 33.9879 97.1029 34.1871 96.2336 34.1871ZM96.2396 32.6719C96.8031 32.6719 97.2699 32.523 97.6402 32.2251C98.0104 31.9273 98.2841 31.5309 98.4612 31.0359C98.6423 30.5408 98.7329 29.9955 98.7329 29.3999C98.7329 28.8082 98.6423 28.2649 98.4612 27.7699C98.2841 27.2708 98.0104 26.8704 97.6402 26.5685C97.2699 26.2667 96.8031 26.1158 96.2396 26.1158C95.6721 26.1158 95.2013 26.2667 94.827 26.5685C94.4567 26.8704 94.181 27.2708 93.9999 27.7699C93.8228 28.2649 93.7343 28.8082 93.7343 29.3999C93.7343 29.9955 93.8228 30.5408 93.9999 31.0359C94.181 31.5309 94.4567 31.9273 94.827 32.2251C95.2013 32.523 95.6721 32.6719 96.2396 32.6719ZM102.571 34V24.7273H104.376V34H102.571ZM103.482 23.2965C103.169 23.2965 102.899 23.1919 102.673 22.9826C102.452 22.7693 102.341 22.5157 102.341 22.2219C102.341 21.9241 102.452 21.6706 102.673 21.4613C102.899 21.248 103.169 21.1413 103.482 21.1413C103.796 21.1413 104.064 21.248 104.285 21.4613C104.511 21.6706 104.623 21.9241 104.623 22.2219C104.623 22.5157 104.511 22.7693 104.285 22.9826C104.064 23.1919 103.796 23.2965 103.482 23.2965ZM106.804 34V24.7273H108.549V26.2003H108.646C108.815 25.7012 109.112 25.3088 109.539 25.0231C109.97 24.7333 110.457 24.5884 111 24.5884C111.113 24.5884 111.245 24.5924 111.398 24.6005C111.555 24.6085 111.678 24.6186 111.767 24.6307V26.3572C111.694 26.3371 111.565 26.315 111.38 26.2908C111.195 26.2627 111.01 26.2486 110.825 26.2486C110.398 26.2486 110.018 26.3391 109.684 26.5202C109.354 26.6973 109.092 26.9448 108.899 27.2628C108.706 27.5767 108.609 27.9349 108.609 28.3374V34H106.804ZM117.828 37.4773V24.7273H119.59V26.2305H119.741C119.846 26.0373 119.997 25.8139 120.194 25.5604C120.391 25.3068 120.665 25.0855 121.015 24.8963C121.365 24.7031 121.828 24.6065 122.404 24.6065C123.152 24.6065 123.82 24.7957 124.408 25.174C124.996 25.5523 125.456 26.0977 125.79 26.81C126.128 27.5224 126.297 28.3796 126.297 29.3817C126.297 30.3839 126.13 31.2431 125.796 31.9595C125.462 32.6719 125.004 33.2212 124.42 33.6076C123.836 33.9899 123.17 34.1811 122.422 34.1811C121.858 34.1811 121.398 34.0865 121.039 33.8974C120.685 33.7082 120.407 33.4869 120.206 33.2333C120.005 32.9798 119.85 32.7544 119.741 32.5572H119.633V37.4773H117.828ZM119.597 29.3636C119.597 30.0156 119.691 30.5871 119.88 31.0781C120.069 31.5691 120.343 31.9535 120.701 32.2312C121.059 32.5049 121.498 32.6417 122.017 32.6417C122.557 32.6417 123.007 32.4988 123.37 32.2131C123.732 31.9233 124.005 31.5309 124.191 31.0359C124.38 30.5408 124.474 29.9834 124.474 29.3636C124.474 28.7519 124.382 28.2025 124.197 27.7156C124.016 27.2286 123.742 26.8442 123.376 26.5625C123.013 26.2808 122.561 26.1399 122.017 26.1399C121.494 26.1399 121.051 26.2747 120.689 26.5444C120.331 26.814 120.059 27.1903 119.874 27.6733C119.689 28.1562 119.597 28.7197 119.597 29.3636ZM130.125 21.6364V34H128.32V21.6364H130.125ZM138.427 30.1545V24.7273H140.238V34H138.463V32.3942H138.367C138.154 32.8892 137.811 33.3017 137.341 33.6317C136.874 33.9577 136.292 34.1207 135.596 34.1207C135 34.1207 134.473 33.9899 134.014 33.7283C133.559 33.4627 133.201 33.0703 132.94 32.5511C132.682 32.032 132.553 31.39 132.553 30.6254V24.7273H134.358V30.408C134.358 31.0399 134.533 31.543 134.884 31.9173C135.234 32.2915 135.688 32.4787 136.248 32.4787C136.586 32.4787 136.922 32.3942 137.256 32.2251C137.594 32.0561 137.874 31.8005 138.095 31.4585C138.321 31.1164 138.431 30.6817 138.427 30.1545ZM149.612 26.9911L147.976 27.2809C147.908 27.0716 147.799 26.8724 147.65 26.6832C147.505 26.4941 147.308 26.3391 147.059 26.2184C146.809 26.0977 146.497 26.0373 146.123 26.0373C145.612 26.0373 145.185 26.152 144.843 26.3814C144.501 26.6068 144.33 26.8986 144.33 27.2567C144.33 27.5666 144.445 27.8162 144.674 28.0053C144.903 28.1945 145.274 28.3494 145.785 28.4702L147.258 28.8082C148.111 29.0054 148.747 29.3093 149.165 29.7198C149.584 30.1303 149.793 30.6636 149.793 31.3196C149.793 31.875 149.632 32.37 149.31 32.8047C148.992 33.2353 148.548 33.5734 147.976 33.8189C147.409 34.0644 146.751 34.1871 146.002 34.1871C144.964 34.1871 144.117 33.9658 143.46 33.5231C142.804 33.0763 142.402 32.4425 142.253 31.6214L143.998 31.3558C144.106 31.8106 144.33 32.1547 144.668 32.3881C145.006 32.6175 145.447 32.7322 145.99 32.7322C146.582 32.7322 147.054 32.6095 147.409 32.364C147.763 32.1145 147.94 31.8106 147.94 31.4524C147.94 31.1626 147.831 30.9192 147.614 30.7219C147.401 30.5247 147.073 30.3758 146.63 30.2752L145.06 29.9311C144.195 29.7339 143.555 29.42 143.141 28.9893C142.73 28.5587 142.525 28.0134 142.525 27.3533C142.525 26.806 142.678 26.3271 142.984 25.9165C143.289 25.506 143.712 25.1861 144.251 24.9567C144.791 24.7232 145.408 24.6065 146.105 24.6065C147.107 24.6065 147.896 24.8239 148.471 25.2585C149.047 25.6892 149.427 26.2667 149.612 26.9911ZM163.225 26.9911L161.589 27.2809C161.521 27.0716 161.412 26.8724 161.263 26.6832C161.119 26.4941 160.921 26.3391 160.672 26.2184C160.422 26.0977 160.11 26.0373 159.736 26.0373C159.225 26.0373 158.798 26.152 158.456 26.3814C158.114 26.6068 157.943 26.8986 157.943 27.2567C157.943 27.5666 158.058 27.8162 158.287 28.0053C158.517 28.1945 158.887 28.3494 159.398 28.4702L160.871 28.8082C161.724 29.0054 162.36 29.3093 162.779 29.7198C163.197 30.1303 163.407 30.6636 163.407 31.3196C163.407 31.875 163.246 32.37 162.924 32.8047C162.606 33.2353 162.161 33.5734 161.589 33.8189C161.022 34.0644 160.364 34.1871 159.615 34.1871C158.577 34.1871 157.73 33.9658 157.074 33.5231C156.418 33.0763 156.015 32.4425 155.866 31.6214L157.611 31.3558C157.72 31.8106 157.943 32.1547 158.281 32.3881C158.619 32.6175 159.06 32.7322 159.603 32.7322C160.195 32.7322 160.668 32.6095 161.022 32.364C161.376 32.1145 161.553 31.8106 161.553 31.4524C161.553 31.1626 161.445 30.9192 161.227 30.7219C161.014 30.5247 160.686 30.3758 160.243 30.2752L158.674 29.9311C157.808 29.7339 157.168 29.42 156.754 28.9893C156.343 28.5587 156.138 28.0134 156.138 27.3533C156.138 26.806 156.291 26.3271 156.597 25.9165C156.903 25.506 157.325 25.1861 157.865 24.9567C158.404 24.7232 159.022 24.6065 159.718 24.6065C160.72 24.6065 161.509 24.8239 162.084 25.2585C162.66 25.6892 163.04 26.2667 163.225 26.9911ZM171.265 30.1545V24.7273H173.076V34H171.301V32.3942H171.205C170.991 32.8892 170.649 33.3017 170.178 33.6317C169.712 33.9577 169.13 34.1207 168.434 34.1207C167.838 34.1207 167.311 33.9899 166.852 33.7283C166.397 33.4627 166.039 33.0703 165.778 32.5511C165.52 32.032 165.391 31.39 165.391 30.6254V24.7273H167.196V30.408C167.196 31.0399 167.371 31.543 167.721 31.9173C168.072 32.2915 168.526 32.4787 169.086 32.4787C169.424 32.4787 169.76 32.3942 170.094 32.2251C170.432 32.0561 170.712 31.8005 170.933 31.4585C171.158 31.1164 171.269 30.6817 171.265 30.1545ZM175.502 34V24.7273H177.246V26.2003H177.343C177.512 25.7012 177.81 25.3088 178.236 25.0231C178.667 24.7333 179.154 24.5884 179.697 24.5884C179.81 24.5884 179.943 24.5924 180.096 24.6005C180.253 24.6085 180.375 24.6186 180.464 24.6307V26.3572C180.391 26.3371 180.263 26.315 180.078 26.2908C179.892 26.2627 179.707 26.2486 179.522 26.2486C179.095 26.2486 178.715 26.3391 178.381 26.5202C178.051 26.6973 177.79 26.9448 177.596 27.2628C177.403 27.5767 177.307 27.9349 177.307 28.3374V34H175.502ZM190.431 34.1871C189.533 34.1871 188.761 33.9839 188.113 33.5774C187.469 33.1669 186.974 32.6014 186.628 31.881C186.281 31.1606 186.108 30.3356 186.108 29.4059C186.108 28.4641 186.285 27.633 186.64 26.9126C186.994 26.1882 187.493 25.6228 188.137 25.2163C188.781 24.8098 189.539 24.6065 190.413 24.6065C191.117 24.6065 191.745 24.7373 192.296 24.9989C192.848 25.2565 193.292 25.6187 193.63 26.0856C193.973 26.5524 194.176 27.0978 194.24 27.7216H192.483C192.387 27.2869 192.165 26.9126 191.819 26.5987C191.477 26.2848 191.018 26.1278 190.443 26.1278C189.94 26.1278 189.499 26.2607 189.121 26.5263C188.747 26.7879 188.455 27.1622 188.245 27.6491C188.036 28.1321 187.932 28.7036 187.932 29.3636C187.932 30.0398 188.034 30.6233 188.239 31.1143C188.445 31.6054 188.734 31.9857 189.109 32.2553C189.487 32.525 189.932 32.6598 190.443 32.6598C190.785 32.6598 191.095 32.5974 191.373 32.4727C191.654 32.3439 191.89 32.1607 192.079 31.9233C192.272 31.6858 192.407 31.4001 192.483 31.0661H194.24C194.176 31.6657 193.981 32.201 193.655 32.6719C193.329 33.1428 192.892 33.513 192.345 33.7827C191.801 34.0523 191.163 34.1871 190.431 34.1871ZM200.167 34.1871C199.253 34.1871 198.467 33.992 197.806 33.6016C197.15 33.2071 196.643 32.6538 196.285 31.9414C195.931 31.225 195.754 30.3859 195.754 29.424C195.754 28.4742 195.931 27.6371 196.285 26.9126C196.643 26.1882 197.142 25.6228 197.782 25.2163C198.426 24.8098 199.179 24.6065 200.04 24.6065C200.563 24.6065 201.07 24.6931 201.561 24.8661C202.052 25.0392 202.493 25.3108 202.884 25.6811C203.274 26.0514 203.582 26.5323 203.807 27.1239C204.033 27.7115 204.145 28.4259 204.145 29.267V29.907H196.774V28.5547H202.376C202.376 28.0798 202.28 27.6592 202.087 27.293C201.893 26.9227 201.622 26.6309 201.272 26.4176C200.926 26.2043 200.519 26.0977 200.052 26.0977C199.545 26.0977 199.102 26.2224 198.724 26.4719C198.35 26.7174 198.06 27.0394 197.855 27.4379C197.654 27.8323 197.553 28.2609 197.553 28.7237V29.7802C197.553 30.4 197.662 30.9272 197.879 31.3619C198.1 31.7965 198.408 32.1286 198.803 32.358C199.197 32.5833 199.658 32.696 200.185 32.696C200.527 32.696 200.839 32.6477 201.121 32.5511C201.402 32.4505 201.646 32.3016 201.851 32.1044C202.056 31.9072 202.213 31.6637 202.322 31.3739L204.031 31.6818C203.894 32.1849 203.648 32.6256 203.294 33.0039C202.944 33.3782 202.503 33.67 201.972 33.8793C201.445 34.0845 200.843 34.1871 200.167 34.1871ZM210.476 24.7273V26.1761H205.411V24.7273H210.476ZM206.77 22.5057H208.575V31.2773C208.575 31.6275 208.627 31.8911 208.732 32.0682C208.836 32.2412 208.971 32.36 209.136 32.4244C209.305 32.4847 209.488 32.5149 209.686 32.5149C209.831 32.5149 209.957 32.5049 210.066 32.4847C210.175 32.4646 210.259 32.4485 210.32 32.4364L210.646 33.9276C210.541 33.9678 210.392 34.008 210.199 34.0483C210.006 34.0926 209.764 34.1167 209.474 34.1207C208.999 34.1288 208.557 34.0443 208.146 33.8672C207.736 33.6901 207.404 33.4164 207.15 33.0462C206.897 32.6759 206.77 32.2111 206.77 31.6516V22.5057ZM216.802 24.7273V26.1761H211.737V24.7273H216.802ZM213.095 22.5057H214.9V31.2773C214.9 31.6275 214.952 31.8911 215.057 32.0682C215.162 32.2412 215.296 32.36 215.461 32.4244C215.631 32.4847 215.814 32.5149 216.011 32.5149C216.156 32.5149 216.282 32.5049 216.391 32.4847C216.5 32.4646 216.584 32.4485 216.645 32.4364L216.971 33.9276C216.866 33.9678 216.717 34.008 216.524 34.0483C216.331 34.0926 216.089 34.1167 215.8 34.1207C215.325 34.1288 214.882 34.0443 214.471 33.8672C214.061 33.6901 213.729 33.4164 213.475 33.0462C213.222 32.6759 213.095 32.2111 213.095 31.6516V22.5057ZM222.695 34.1871C221.782 34.1871 220.995 33.992 220.335 33.6016C219.679 33.2071 219.172 32.6538 218.813 31.9414C218.459 31.225 218.282 30.3859 218.282 29.424C218.282 28.4742 218.459 27.6371 218.813 26.9126C219.172 26.1882 219.671 25.6228 220.311 25.2163C220.955 24.8098 221.707 24.6065 222.568 24.6065C223.092 24.6065 223.599 24.6931 224.09 24.8661C224.581 25.0392 225.021 25.3108 225.412 25.6811C225.802 26.0514 226.11 26.5323 226.335 27.1239C226.561 27.7115 226.674 28.4259 226.674 29.267V29.907H219.302V28.5547H224.905C224.905 28.0798 224.808 27.6592 224.615 27.293C224.422 26.9227 224.15 26.6309 223.8 26.4176C223.454 26.2043 223.047 26.0977 222.581 26.0977C222.073 26.0977 221.631 26.2224 221.252 26.4719C220.878 26.7174 220.588 27.0394 220.383 27.4379C220.182 27.8323 220.081 28.2609 220.081 28.7237V29.7802C220.081 30.4 220.19 30.9272 220.407 31.3619C220.629 31.7965 220.936 32.1286 221.331 32.358C221.725 32.5833 222.186 32.696 222.713 32.696C223.055 32.696 223.367 32.6477 223.649 32.5511C223.931 32.4505 224.174 32.3016 224.38 32.1044C224.585 31.9072 224.742 31.6637 224.85 31.3739L226.559 31.6818C226.422 32.1849 226.177 32.6256 225.822 33.0039C225.472 33.3782 225.032 33.67 224.5 33.8793C223.973 34.0845 223.371 34.1871 222.695 34.1871ZM237.081 34.1871C236.212 34.1871 235.453 33.9879 234.805 33.5895C234.157 33.1911 233.654 32.6336 233.296 31.9173C232.938 31.2009 232.759 30.3638 232.759 29.4059C232.759 28.444 232.938 27.6029 233.296 26.8825C233.654 26.162 234.157 25.6026 234.805 25.2042C235.453 24.8058 236.212 24.6065 237.081 24.6065C237.951 24.6065 238.709 24.8058 239.357 25.2042C240.005 25.6026 240.508 26.162 240.866 26.8825C241.225 27.6029 241.404 28.444 241.404 29.4059C241.404 30.3638 241.225 31.2009 240.866 31.9173C240.508 32.6336 240.005 33.1911 239.357 33.5895C238.709 33.9879 237.951 34.1871 237.081 34.1871ZM237.087 32.6719C237.651 32.6719 238.118 32.523 238.488 32.2251C238.858 31.9273 239.132 31.5309 239.309 31.0359C239.49 30.5408 239.581 29.9955 239.581 29.3999C239.581 28.8082 239.49 28.2649 239.309 27.7699C239.132 27.2708 238.858 26.8704 238.488 26.5685C238.118 26.2667 237.651 26.1158 237.087 26.1158C236.52 26.1158 236.049 26.2667 235.675 26.5685C235.304 26.8704 235.029 27.2708 234.848 27.7699C234.67 28.2649 234.582 28.8082 234.582 29.3999C234.582 29.9955 234.67 30.5408 234.848 31.0359C235.029 31.5309 235.304 31.9273 235.675 32.2251C236.049 32.523 236.52 32.6719 237.087 32.6719ZM247.831 24.7273V26.1761H242.591V24.7273H247.831ZM244.028 34V23.6527C244.028 23.0732 244.155 22.5922 244.409 22.2099C244.662 21.8235 244.998 21.5357 245.417 21.3466C245.835 21.1534 246.29 21.0568 246.781 21.0568C247.143 21.0568 247.453 21.087 247.711 21.1474C247.968 21.2037 248.16 21.256 248.284 21.3043L247.862 22.7653C247.777 22.7411 247.669 22.7129 247.536 22.6808C247.403 22.6445 247.242 22.6264 247.053 22.6264C246.614 22.6264 246.3 22.7351 246.111 22.9524C245.926 23.1697 245.833 23.4837 245.833 23.8942V34H244.028ZM254.107 24.7273V26.1761H248.867V24.7273H254.107ZM250.304 34V23.6527C250.304 23.0732 250.43 22.5922 250.684 22.2099C250.938 21.8235 251.274 21.5357 251.692 21.3466C252.111 21.1534 252.565 21.0568 253.056 21.0568C253.419 21.0568 253.729 21.087 253.986 21.1474C254.244 21.2037 254.435 21.256 254.56 21.3043L254.137 22.7653C254.053 22.7411 253.944 22.7129 253.811 22.6808C253.678 22.6445 253.517 22.6264 253.328 22.6264C252.889 22.6264 252.576 22.7351 252.386 22.9524C252.201 23.1697 252.109 23.4837 252.109 23.8942V34H250.304ZM255.969 34V24.7273H257.714V26.2003H257.811C257.98 25.7012 258.277 25.3088 258.704 25.0231C259.135 24.7333 259.622 24.5884 260.165 24.5884C260.278 24.5884 260.41 24.5924 260.563 24.6005C260.72 24.6085 260.843 24.6186 260.932 24.6307V26.3572C260.859 26.3371 260.73 26.315 260.545 26.2908C260.36 26.2627 260.175 26.2486 259.99 26.2486C259.563 26.2486 259.183 26.3391 258.849 26.5202C258.519 26.6973 258.257 26.9448 258.064 27.2628C257.871 27.5767 257.774 27.9349 257.774 28.3374V34H255.969ZM266.158 34.1871C265.245 34.1871 264.458 33.992 263.798 33.6016C263.142 33.2071 262.635 32.6538 262.276 31.9414C261.922 31.225 261.745 30.3859 261.745 29.424C261.745 28.4742 261.922 27.6371 262.276 26.9126C262.635 26.1882 263.134 25.6228 263.774 25.2163C264.417 24.8098 265.17 24.6065 266.031 24.6065C266.555 24.6065 267.062 24.6931 267.553 24.8661C268.044 25.0392 268.484 25.3108 268.875 25.6811C269.265 26.0514 269.573 26.5323 269.798 27.1239C270.024 27.7115 270.136 28.4259 270.136 29.267V29.907H262.765V28.5547H268.368C268.368 28.0798 268.271 27.6592 268.078 27.293C267.885 26.9227 267.613 26.6309 267.263 26.4176C266.917 26.2043 266.51 26.0977 266.043 26.0977C265.536 26.0977 265.094 26.2224 264.715 26.4719C264.341 26.7174 264.051 27.0394 263.846 27.4379C263.645 27.8323 263.544 28.2609 263.544 28.7237V29.7802C263.544 30.4 263.653 30.9272 263.87 31.3619C264.091 31.7965 264.399 32.1286 264.794 32.358C265.188 32.5833 265.649 32.696 266.176 32.696C266.518 32.696 266.83 32.6477 267.112 32.5511C267.394 32.4505 267.637 32.3016 267.842 32.1044C268.048 31.9072 268.205 31.6637 268.313 31.3739L270.022 31.6818C269.885 32.1849 269.639 32.6256 269.285 33.0039C268.935 33.3782 268.494 33.67 267.963 33.8793C267.436 34.0845 266.834 34.1871 266.158 34.1871Z" fill="white"/>
<defs>
<linearGradient id="paint0_linear_4_3875" x1="0" y1="28" x2="318" y2="28" gradientUnits="userSpaceOnUse">
<stop stop-color="#D95DB0"/>
<stop offset="1" stop-color="#3344DC"/>
</linearGradient>
</defs>
</svg>
