<svg width="328" height="56" viewBox="0 0 328 56" fill="none" xmlns="http://www.w3.org/2000/svg">
<rect width="328" height="56" rx="28" fill="url(#paint0_linear_4_3902)"/>
<path d="M47.0415 37.4773V24.7273H48.8043V26.2305H48.9553C49.0599 26.0373 49.2108 25.8139 49.408 25.5604C49.6052 25.3068 49.8789 25.0855 50.229 24.8963C50.5792 24.7031 51.042 24.6065 51.6175 24.6065C52.3661 24.6065 53.0342 24.7957 53.6218 25.174C54.2094 25.5523 54.6702 26.0977 55.0043 26.81C55.3423 27.5224 55.5114 28.3796 55.5114 29.3817C55.5114 30.3839 55.3443 31.2431 55.0103 31.9595C54.6763 32.6719 54.2174 33.2212 53.6339 33.6076C53.0503 33.9899 52.3842 34.1811 51.6357 34.1811C51.0722 34.1811 50.6114 34.0865 50.2532 33.8974C49.899 33.7082 49.6213 33.4869 49.4201 33.2333C49.2189 32.9798 49.0639 32.7544 48.9553 32.5572H48.8466V37.4773H47.0415ZM48.8104 29.3636C48.8104 30.0156 48.9049 30.5871 49.0941 31.0781C49.2833 31.5691 49.5569 31.9535 49.9151 32.2312C50.2733 32.5049 50.712 32.6417 51.2312 32.6417C51.7705 32.6417 52.2212 32.4988 52.5835 32.2131C52.9457 31.9233 53.2193 31.5309 53.4045 31.0359C53.5936 30.5408 53.6882 29.9834 53.6882 29.3636C53.6882 28.7519 53.5956 28.2025 53.4105 27.7156C53.2294 27.2286 52.9557 26.8442 52.5895 26.5625C52.2273 26.2808 51.7745 26.1399 51.2312 26.1399C50.708 26.1399 50.2653 26.2747 49.9031 26.5444C49.5449 26.814 49.2732 27.1903 49.0881 27.6733C48.9029 28.1562 48.8104 28.7197 48.8104 29.3636ZM60.2322 34.2053C59.6446 34.2053 59.1134 34.0966 58.6385 33.8793C58.1636 33.6579 57.7873 33.3379 57.5096 32.9194C57.2359 32.5008 57.0991 31.9877 57.0991 31.38C57.0991 30.8568 57.1997 30.4261 57.4009 30.0881C57.6022 29.75 57.8738 29.4824 58.2159 29.2852C58.558 29.0879 58.9403 28.939 59.3629 28.8384C59.7855 28.7378 60.2161 28.6613 60.6548 28.609C61.2102 28.5446 61.661 28.4923 62.0071 28.4521C62.3532 28.4078 62.6048 28.3374 62.7617 28.2408C62.9187 28.1442 62.9972 27.9872 62.9972 27.7699V27.7276C62.9972 27.2004 62.8482 26.7919 62.5504 26.5021C62.2566 26.2124 61.8179 26.0675 61.2344 26.0675C60.6267 26.0675 60.1477 26.2023 59.7976 26.4719C59.4515 26.7376 59.212 27.0334 59.0792 27.3594L57.3828 26.973C57.584 26.4096 57.8778 25.9548 58.2642 25.6087C58.6546 25.2585 59.1033 25.005 59.6104 24.848C60.1175 24.687 60.6508 24.6065 61.2102 24.6065C61.5805 24.6065 61.9729 24.6508 62.3874 24.7393C62.806 24.8239 63.1964 24.9808 63.5586 25.2102C63.9248 25.4396 64.2247 25.7676 64.4581 26.1942C64.6915 26.6168 64.8082 27.1662 64.8082 27.8423V34H63.0455V32.7322H62.973C62.8563 32.9657 62.6812 33.1951 62.4478 33.4205C62.2144 33.6458 61.9145 33.833 61.5483 33.9819C61.1821 34.1308 60.7434 34.2053 60.2322 34.2053ZM60.6246 32.7564C61.1237 32.7564 61.5503 32.6578 61.9045 32.4606C62.2627 32.2634 62.5343 32.0058 62.7195 31.6879C62.9086 31.3659 63.0032 31.0218 63.0032 30.6555V29.4602C62.9388 29.5246 62.814 29.585 62.6289 29.6413C62.4478 29.6937 62.2405 29.7399 62.0071 29.7802C61.7737 29.8164 61.5463 29.8506 61.3249 29.8828C61.1036 29.911 60.9184 29.9351 60.7695 29.9553C60.4194 29.9995 60.0994 30.074 59.8097 30.1786C59.5239 30.2833 59.2945 30.4342 59.1214 30.6314C58.9524 30.8246 58.8679 31.0821 58.8679 31.4041C58.8679 31.8509 59.0329 32.1889 59.3629 32.4183C59.6929 32.6437 60.1135 32.7564 60.6246 32.7564ZM67.2124 34V24.7273H68.9571V26.2003H69.0537C69.2227 25.7012 69.5206 25.3088 69.9472 25.0231C70.3778 24.7333 70.8648 24.5884 71.4081 24.5884C71.5208 24.5884 71.6536 24.5924 71.8066 24.6005C71.9635 24.6085 72.0863 24.6186 72.1748 24.6307V26.3572C72.1024 26.3371 71.9736 26.315 71.7884 26.2908C71.6033 26.2627 71.4182 26.2486 71.233 26.2486C70.8064 26.2486 70.4261 26.3391 70.0921 26.5202C69.762 26.6973 69.5004 26.9448 69.3073 27.2628C69.1141 27.5767 69.0175 27.9349 69.0175 28.3374V34H67.2124ZM75.5419 21.6364V34H73.7369V21.6364H75.5419ZM81.9667 34.1871C81.0531 34.1871 80.2663 33.992 79.6063 33.6016C78.9503 33.2071 78.4432 32.6538 78.085 31.9414C77.7308 31.225 77.5537 30.3859 77.5537 29.424C77.5537 28.4742 77.7308 27.6371 78.085 26.9126C78.4432 26.1882 78.9422 25.6228 79.5821 25.2163C80.2261 24.8098 80.9787 24.6065 81.8399 24.6065C82.3631 24.6065 82.8702 24.6931 83.3612 24.8661C83.8522 25.0392 84.2929 25.3108 84.6833 25.6811C85.0737 26.0514 85.3816 26.5323 85.607 27.1239C85.8324 27.7115 85.945 28.4259 85.945 29.267V29.907H78.574V28.5547H84.1762C84.1762 28.0798 84.0796 27.6592 83.8865 27.293C83.6933 26.9227 83.4216 26.6309 83.0715 26.4176C82.7253 26.2043 82.3189 26.0977 81.852 26.0977C81.3449 26.0977 80.9022 26.2224 80.5239 26.4719C80.1496 26.7174 79.8598 27.0394 79.6546 27.4379C79.4533 27.8323 79.3527 28.2609 79.3527 28.7237V29.7802C79.3527 30.4 79.4614 30.9272 79.6787 31.3619C79.9001 31.7965 80.2079 32.1286 80.6024 32.358C80.9968 32.5833 81.4576 32.696 81.9848 32.696C82.3269 32.696 82.6388 32.6477 82.9205 32.5511C83.2023 32.4505 83.4458 32.3016 83.651 32.1044C83.8563 31.9072 84.0132 31.6637 84.1219 31.3739L85.8303 31.6818C85.6935 32.1849 85.448 32.6256 85.0938 33.0039C84.7437 33.3782 84.303 33.67 83.7718 33.8793C83.2445 34.0845 82.6428 34.1871 81.9667 34.1871ZM87.7546 34V32.7624L92.7773 26.3814V26.2969H87.9176V24.7273H95.0291V26.0433L90.1996 32.3459V32.4304H95.1982V34H87.7546ZM102.791 27.9933V29.5568H97.3096V27.9933H102.791ZM107.002 28.4943V34H105.197V24.7273H106.929V26.2365H107.044C107.257 25.7455 107.591 25.3511 108.046 25.0533C108.505 24.7554 109.083 24.6065 109.779 24.6065C110.411 24.6065 110.964 24.7393 111.439 25.005C111.914 25.2666 112.282 25.657 112.544 26.1761C112.805 26.6953 112.936 27.3372 112.936 28.1019V34H111.131V28.3192C111.131 27.6471 110.956 27.1219 110.606 26.7436C110.256 26.3613 109.775 26.1701 109.163 26.1701C108.745 26.1701 108.372 26.2607 108.046 26.4418C107.724 26.6229 107.469 26.8885 107.28 27.2386C107.094 27.5848 107.002 28.0033 107.002 28.4943ZM119.263 34.1871C118.394 34.1871 117.635 33.9879 116.987 33.5895C116.339 33.1911 115.836 32.6336 115.478 31.9173C115.12 31.2009 114.94 30.3638 114.94 29.4059C114.94 28.444 115.12 27.6029 115.478 26.8825C115.836 26.162 116.339 25.6026 116.987 25.2042C117.635 24.8058 118.394 24.6065 119.263 24.6065C120.132 24.6065 120.891 24.8058 121.539 25.2042C122.187 25.6026 122.69 26.162 123.048 26.8825C123.406 27.6029 123.585 28.444 123.585 29.4059C123.585 30.3638 123.406 31.2009 123.048 31.9173C122.69 32.6336 122.187 33.1911 121.539 33.5895C120.891 33.9879 120.132 34.1871 119.263 34.1871ZM119.269 32.6719C119.832 32.6719 120.299 32.523 120.669 32.2251C121.04 31.9273 121.313 31.5309 121.491 31.0359C121.672 30.5408 121.762 29.9955 121.762 29.3999C121.762 28.8082 121.672 28.2649 121.491 27.7699C121.313 27.2708 121.04 26.8704 120.669 26.5685C120.299 26.2667 119.832 26.1158 119.269 26.1158C118.701 26.1158 118.231 26.2667 117.856 26.5685C117.486 26.8704 117.21 27.2708 117.029 27.7699C116.852 28.2649 116.764 28.8082 116.764 29.3999C116.764 29.9955 116.852 30.5408 117.029 31.0359C117.21 31.5309 117.486 31.9273 117.856 32.2251C118.231 32.523 118.701 32.6719 119.269 32.6719ZM131.474 30.1545V24.7273H133.285V34H131.51V32.3942H131.414C131.2 32.8892 130.858 33.3017 130.387 33.6317C129.921 33.9577 129.339 34.1207 128.643 34.1207C128.047 34.1207 127.52 33.9899 127.061 33.7283C126.606 33.4627 126.248 33.0703 125.987 32.5511C125.729 32.032 125.6 31.39 125.6 30.6254V24.7273H127.405V30.408C127.405 31.0399 127.58 31.543 127.93 31.9173C128.281 32.2915 128.735 32.4787 129.295 32.4787C129.633 32.4787 129.969 32.3942 130.303 32.2251C130.641 32.0561 130.921 31.8005 131.142 31.4585C131.367 31.1164 131.478 30.6817 131.474 30.1545ZM142.659 26.9911L141.023 27.2809C140.955 27.0716 140.846 26.8724 140.697 26.6832C140.552 26.4941 140.355 26.3391 140.105 26.2184C139.856 26.0977 139.544 26.0373 139.17 26.0373C138.659 26.0373 138.232 26.152 137.89 26.3814C137.548 26.6068 137.377 26.8986 137.377 27.2567C137.377 27.5666 137.491 27.8162 137.721 28.0053C137.95 28.1945 138.32 28.3494 138.832 28.4702L140.305 28.8082C141.158 29.0054 141.794 29.3093 142.212 29.7198C142.631 30.1303 142.84 30.6636 142.84 31.3196C142.84 31.875 142.679 32.37 142.357 32.8047C142.039 33.2353 141.594 33.5734 141.023 33.8189C140.456 34.0644 139.797 34.1871 139.049 34.1871C138.011 34.1871 137.163 33.9658 136.507 33.5231C135.851 33.0763 135.449 32.4425 135.3 31.6214L137.045 31.3558C137.153 31.8106 137.377 32.1547 137.715 32.3881C138.053 32.6175 138.494 32.7322 139.037 32.7322C139.628 32.7322 140.101 32.6095 140.456 32.364C140.81 32.1145 140.987 31.8106 140.987 31.4524C140.987 31.1626 140.878 30.9192 140.661 30.7219C140.447 30.5247 140.119 30.3758 139.677 30.2752L138.107 29.9311C137.242 29.7339 136.602 29.42 136.187 28.9893C135.777 28.5587 135.572 28.0134 135.572 27.3533C135.572 26.806 135.725 26.3271 136.03 25.9165C136.336 25.506 136.759 25.1861 137.298 24.9567C137.838 24.7232 138.455 24.6065 139.152 24.6065C140.154 24.6065 140.943 24.8239 141.518 25.2585C142.094 25.6892 142.474 26.2667 142.659 26.9911ZM152.795 34.1811C152.046 34.1811 151.378 33.9899 150.791 33.6076C150.207 33.2212 149.748 32.6719 149.414 31.9595C149.084 31.2431 148.919 30.3839 148.919 29.3817C148.919 28.3796 149.086 27.5224 149.42 26.81C149.758 26.0977 150.221 25.5523 150.809 25.174C151.396 24.7957 152.063 24.6065 152.807 24.6065C153.383 24.6065 153.845 24.7031 154.196 24.8963C154.55 25.0855 154.823 25.3068 155.017 25.5604C155.214 25.8139 155.367 26.0373 155.475 26.2305H155.584V21.6364H157.389V34H155.626V32.5572H155.475C155.367 32.7544 155.21 32.9798 155.005 33.2333C154.803 33.4869 154.526 33.7082 154.171 33.8974C153.817 34.0865 153.358 34.1811 152.795 34.1811ZM153.193 32.6417C153.713 32.6417 154.151 32.5049 154.509 32.2312C154.872 31.9535 155.145 31.5691 155.331 31.0781C155.52 30.5871 155.614 30.0156 155.614 29.3636C155.614 28.7197 155.522 28.1562 155.337 27.6733C155.151 27.1903 154.88 26.814 154.522 26.5444C154.163 26.2747 153.721 26.1399 153.193 26.1399C152.65 26.1399 152.197 26.2808 151.835 26.5625C151.473 26.8442 151.199 27.2286 151.014 27.7156C150.833 28.2025 150.742 28.7519 150.742 29.3636C150.742 29.9834 150.835 30.5408 151.02 31.0359C151.205 31.5309 151.479 31.9233 151.841 32.2131C152.207 32.4988 152.658 32.6417 153.193 32.6417ZM163.962 34.1871C163.048 34.1871 162.261 33.992 161.601 33.6016C160.945 33.2071 160.438 32.6538 160.08 31.9414C159.726 31.225 159.549 30.3859 159.549 29.424C159.549 28.4742 159.726 27.6371 160.08 26.9126C160.438 26.1882 160.937 25.6228 161.577 25.2163C162.221 24.8098 162.974 24.6065 163.835 24.6065C164.358 24.6065 164.865 24.6931 165.356 24.8661C165.847 25.0392 166.288 25.3108 166.678 25.6811C167.069 26.0514 167.377 26.5323 167.602 27.1239C167.827 27.7115 167.94 28.4259 167.94 29.267V29.907H160.569V28.5547H166.171C166.171 28.0798 166.075 27.6592 165.882 27.293C165.688 26.9227 165.417 26.6309 165.067 26.4176C164.72 26.2043 164.314 26.0977 163.847 26.0977C163.34 26.0977 162.897 26.2224 162.519 26.4719C162.145 26.7174 161.855 27.0394 161.65 27.4379C161.448 27.8323 161.348 28.2609 161.348 28.7237V29.7802C161.348 30.4 161.456 30.9272 161.674 31.3619C161.895 31.7965 162.203 32.1286 162.597 32.358C162.992 32.5833 163.453 32.696 163.98 32.696C164.322 32.696 164.634 32.6477 164.916 32.5511C165.197 32.4505 165.441 32.3016 165.646 32.1044C165.851 31.9072 166.008 31.6637 166.117 31.3739L167.825 31.6818C167.689 32.1849 167.443 32.6256 167.089 33.0039C166.739 33.3782 166.298 33.67 165.767 33.8793C165.24 34.0845 164.638 34.1871 163.962 34.1871ZM182.374 24.7273L179.012 34H177.08L173.711 24.7273H175.649L177.998 31.8629H178.094L180.437 24.7273H182.374ZM187.661 34.1871C186.792 34.1871 186.033 33.9879 185.385 33.5895C184.737 33.1911 184.234 32.6336 183.876 31.9173C183.518 31.2009 183.339 30.3638 183.339 29.4059C183.339 28.444 183.518 27.6029 183.876 26.8825C184.234 26.162 184.737 25.6026 185.385 25.2042C186.033 24.8058 186.792 24.6065 187.661 24.6065C188.531 24.6065 189.289 24.8058 189.937 25.2042C190.585 25.6026 191.088 26.162 191.446 26.8825C191.805 27.6029 191.984 28.444 191.984 29.4059C191.984 30.3638 191.805 31.2009 191.446 31.9173C191.088 32.6336 190.585 33.1911 189.937 33.5895C189.289 33.9879 188.531 34.1871 187.661 34.1871ZM187.667 32.6719C188.231 32.6719 188.698 32.523 189.068 32.2251C189.438 31.9273 189.712 31.5309 189.889 31.0359C190.07 30.5408 190.161 29.9955 190.161 29.3999C190.161 28.8082 190.07 28.2649 189.889 27.7699C189.712 27.2708 189.438 26.8704 189.068 26.5685C188.698 26.2667 188.231 26.1158 187.667 26.1158C187.1 26.1158 186.629 26.2667 186.255 26.5685C185.884 26.8704 185.609 27.2708 185.428 27.7699C185.251 28.2649 185.162 28.8082 185.162 29.3999C185.162 29.9955 185.251 30.5408 185.428 31.0359C185.609 31.5309 185.884 31.9273 186.255 32.2251C186.629 32.523 187.1 32.6719 187.667 32.6719ZM198.327 24.7273V26.1761H193.262V24.7273H198.327ZM194.62 22.5057H196.425V31.2773C196.425 31.6275 196.478 31.8911 196.582 32.0682C196.687 32.2412 196.822 32.36 196.987 32.4244C197.156 32.4847 197.339 32.5149 197.536 32.5149C197.681 32.5149 197.808 32.5049 197.917 32.4847C198.025 32.4646 198.11 32.4485 198.17 32.4364L198.496 33.9276C198.391 33.9678 198.243 34.008 198.049 34.0483C197.856 34.0926 197.615 34.1167 197.325 34.1207C196.85 34.1288 196.407 34.0443 195.997 33.8672C195.586 33.6901 195.254 33.4164 195.001 33.0462C194.747 32.6759 194.62 32.2111 194.62 31.6516V22.5057ZM200.324 34V24.7273H202.068V26.2003H202.165C202.334 25.7012 202.632 25.3088 203.059 25.0231C203.489 24.7333 203.976 24.5884 204.519 24.5884C204.632 24.5884 204.765 24.5924 204.918 24.6005C205.075 24.6085 205.198 24.6186 205.286 24.6307V26.3572C205.214 26.3371 205.085 26.315 204.9 26.2908C204.715 26.2627 204.53 26.2486 204.344 26.2486C203.918 26.2486 203.537 26.3391 203.203 26.5202C202.873 26.6973 202.612 26.9448 202.419 27.2628C202.225 27.5767 202.129 27.9349 202.129 28.3374V34H200.324ZM210.513 34.1871C209.599 34.1871 208.812 33.992 208.152 33.6016C207.496 33.2071 206.989 32.6538 206.631 31.9414C206.277 31.225 206.1 30.3859 206.1 29.424C206.1 28.4742 206.277 27.6371 206.631 26.9126C206.989 26.1882 207.488 25.6228 208.128 25.2163C208.772 24.8098 209.525 24.6065 210.386 24.6065C210.909 24.6065 211.416 24.6931 211.907 24.8661C212.398 25.0392 212.839 25.3108 213.229 25.6811C213.62 26.0514 213.927 26.5323 214.153 27.1239C214.378 27.7115 214.491 28.4259 214.491 29.267V29.907H207.12V28.5547H212.722C212.722 28.0798 212.626 27.6592 212.432 27.293C212.239 26.9227 211.968 26.6309 211.617 26.4176C211.271 26.2043 210.865 26.0977 210.398 26.0977C209.891 26.0977 209.448 26.2224 209.07 26.4719C208.695 26.7174 208.406 27.0394 208.2 27.4379C207.999 27.8323 207.899 28.2609 207.899 28.7237V29.7802C207.899 30.4 208.007 30.9272 208.225 31.3619C208.446 31.7965 208.754 32.1286 209.148 32.358C209.543 32.5833 210.003 32.696 210.531 32.696C210.873 32.696 211.185 32.6477 211.466 32.5511C211.748 32.4505 211.992 32.3016 212.197 32.1044C212.402 31.9072 212.559 31.6637 212.668 31.3739L214.376 31.6818C214.239 32.1849 213.994 32.6256 213.64 33.0039C213.29 33.3782 212.849 33.67 212.318 33.8793C211.79 34.0845 211.189 34.1871 210.513 34.1871ZM221.138 34V21.6364H222.943V26.2305H223.051C223.156 26.0373 223.307 25.8139 223.504 25.5604C223.701 25.3068 223.975 25.0855 224.325 24.8963C224.675 24.7031 225.138 24.6065 225.714 24.6065C226.462 24.6065 227.13 24.7957 227.718 25.174C228.305 25.5523 228.766 26.0977 229.1 26.81C229.438 27.5224 229.607 28.3796 229.607 29.3817C229.607 30.3839 229.44 31.2431 229.106 31.9595C228.772 32.6719 228.314 33.2212 227.73 33.6076C227.146 33.9899 226.48 34.1811 225.732 34.1811C225.168 34.1811 224.707 34.0865 224.349 33.8974C223.995 33.7082 223.717 33.4869 223.516 33.2333C223.315 32.9798 223.16 32.7544 223.051 32.5572H222.9V34H221.138ZM222.906 29.3636C222.906 30.0156 223.001 30.5871 223.19 31.0781C223.379 31.5691 223.653 31.9535 224.011 32.2312C224.369 32.5049 224.808 32.6417 225.327 32.6417C225.867 32.6417 226.317 32.4988 226.68 32.2131C227.042 31.9233 227.315 31.5309 227.501 31.0359C227.69 30.5408 227.784 29.9834 227.784 29.3636C227.784 28.7519 227.692 28.2025 227.507 27.7156C227.325 27.2286 227.052 26.8442 226.686 26.5625C226.323 26.2808 225.871 26.1399 225.327 26.1399C224.804 26.1399 224.361 26.2747 223.999 26.5444C223.641 26.814 223.369 27.1903 223.184 27.6733C222.999 28.1562 222.906 28.7197 222.906 29.3636ZM235.631 34.1871C234.717 34.1871 233.93 33.992 233.27 33.6016C232.614 33.2071 232.107 32.6538 231.749 31.9414C231.395 31.225 231.218 30.3859 231.218 29.424C231.218 28.4742 231.395 27.6371 231.749 26.9126C232.107 26.1882 232.606 25.6228 233.246 25.2163C233.89 24.8098 234.643 24.6065 235.504 24.6065C236.027 24.6065 236.534 24.6931 237.025 24.8661C237.516 25.0392 237.957 25.3108 238.347 25.6811C238.738 26.0514 239.046 26.5323 239.271 27.1239C239.496 27.7115 239.609 28.4259 239.609 29.267V29.907H232.238V28.5547H237.84C237.84 28.0798 237.744 27.6592 237.551 27.293C237.357 26.9227 237.086 26.6309 236.736 26.4176C236.389 26.2043 235.983 26.0977 235.516 26.0977C235.009 26.0977 234.566 26.2224 234.188 26.4719C233.814 26.7174 233.524 27.0394 233.319 27.4379C233.117 27.8323 233.017 28.2609 233.017 28.7237V29.7802C233.017 30.4 233.125 30.9272 233.343 31.3619C233.564 31.7965 233.872 32.1286 234.266 32.358C234.661 32.5833 235.122 32.696 235.649 32.696C235.991 32.696 236.303 32.6477 236.585 32.5511C236.866 32.4505 237.11 32.3016 237.315 32.1044C237.52 31.9072 237.677 31.6637 237.786 31.3739L239.494 31.6818C239.358 32.1849 239.112 32.6256 238.758 33.0039C238.408 33.3782 237.967 33.67 237.436 33.8793C236.909 34.0845 236.307 34.1871 235.631 34.1871ZM248.56 26.9911L246.924 27.2809C246.856 27.0716 246.747 26.8724 246.598 26.6832C246.453 26.4941 246.256 26.3391 246.007 26.2184C245.757 26.0977 245.445 26.0373 245.071 26.0373C244.56 26.0373 244.133 26.152 243.791 26.3814C243.449 26.6068 243.278 26.8986 243.278 27.2567C243.278 27.5666 243.393 27.8162 243.622 28.0053C243.852 28.1945 244.222 28.3494 244.733 28.4702L246.206 28.8082C247.059 29.0054 247.695 29.3093 248.114 29.7198C248.532 30.1303 248.741 30.6636 248.741 31.3196C248.741 31.875 248.58 32.37 248.259 32.8047C247.941 33.2353 247.496 33.5734 246.924 33.8189C246.357 34.0644 245.699 34.1871 244.95 34.1871C243.912 34.1871 243.065 33.9658 242.409 33.5231C241.753 33.0763 241.35 32.4425 241.201 31.6214L242.946 31.3558C243.055 31.8106 243.278 32.1547 243.616 32.3881C243.954 32.6175 244.395 32.7322 244.938 32.7322C245.53 32.7322 246.003 32.6095 246.357 32.364C246.711 32.1145 246.888 31.8106 246.888 31.4524C246.888 31.1626 246.779 30.9192 246.562 30.7219C246.349 30.5247 246.021 30.3758 245.578 30.2752L244.009 29.9311C243.143 29.7339 242.503 29.42 242.089 28.9893C241.678 28.5587 241.473 28.0134 241.473 27.3533C241.473 26.806 241.626 26.3271 241.932 25.9165C242.238 25.506 242.66 25.1861 243.2 24.9567C243.739 24.7232 244.357 24.6065 245.053 24.6065C246.055 24.6065 246.844 24.8239 247.419 25.2585C247.995 25.6892 248.375 26.2667 248.56 26.9911ZM254.632 34.1871C253.763 34.1871 253.004 33.9879 252.356 33.5895C251.708 33.1911 251.205 32.6336 250.847 31.9173C250.489 31.2009 250.31 30.3638 250.31 29.4059C250.31 28.444 250.489 27.6029 250.847 26.8825C251.205 26.162 251.708 25.6026 252.356 25.2042C253.004 24.8058 253.763 24.6065 254.632 24.6065C255.501 24.6065 256.26 24.8058 256.908 25.2042C257.556 25.6026 258.059 26.162 258.417 26.8825C258.775 27.6029 258.954 28.444 258.954 29.4059C258.954 30.3638 258.775 31.2009 258.417 31.9173C258.059 32.6336 257.556 33.1911 256.908 33.5895C256.26 33.9879 255.501 34.1871 254.632 34.1871ZM254.638 32.6719C255.201 32.6719 255.668 32.523 256.039 32.2251C256.409 31.9273 256.683 31.5309 256.86 31.0359C257.041 30.5408 257.131 29.9955 257.131 29.3999C257.131 28.8082 257.041 28.2649 256.86 27.7699C256.683 27.2708 256.409 26.8704 256.039 26.5685C255.668 26.2667 255.201 26.1158 254.638 26.1158C254.071 26.1158 253.6 26.2667 253.225 26.5685C252.855 26.8704 252.579 27.2708 252.398 27.7699C252.221 28.2649 252.133 28.8082 252.133 29.3999C252.133 29.9955 252.221 30.5408 252.398 31.0359C252.579 31.5309 252.855 31.9273 253.225 32.2251C253.6 32.523 254.071 32.6719 254.638 32.6719ZM260.969 34V24.7273H262.774V34H260.969ZM261.881 23.2965C261.567 23.2965 261.297 23.1919 261.072 22.9826C260.851 22.7693 260.74 22.5157 260.74 22.2219C260.74 21.9241 260.851 21.6706 261.072 21.4613C261.297 21.248 261.567 21.1413 261.881 21.1413C262.195 21.1413 262.462 21.248 262.684 21.4613C262.909 21.6706 263.022 21.9241 263.022 22.2219C263.022 22.5157 262.909 22.7693 262.684 22.9826C262.462 23.1919 262.195 23.2965 261.881 23.2965ZM267.008 28.4943V34H265.203V24.7273H266.935V26.2365H267.05C267.263 25.7455 267.597 25.3511 268.052 25.0533C268.511 24.7554 269.088 24.6065 269.785 24.6065C270.417 24.6065 270.97 24.7393 271.445 25.005C271.92 25.2666 272.288 25.657 272.55 26.1761C272.811 26.6953 272.942 27.3372 272.942 28.1019V34H271.137V28.3192C271.137 27.6471 270.962 27.1219 270.612 26.7436C270.262 26.3613 269.781 26.1701 269.169 26.1701C268.75 26.1701 268.378 26.2607 268.052 26.4418C267.73 26.6229 267.475 26.8885 267.285 27.2386C267.1 27.5848 267.008 28.0033 267.008 28.4943Z" fill="white"/>
<defs>
<linearGradient id="paint0_linear_4_3902" x1="0" y1="28" x2="328" y2="28" gradientUnits="userSpaceOnUse">
<stop stop-color="#D95DB0"/>
<stop offset="1" stop-color="#3344DC"/>
</linearGradient>
</defs>
</svg>
