<svg width="329" height="61" viewBox="0 0 329 61" fill="none" xmlns="http://www.w3.org/2000/svg">
<rect y="0.59375" width="329" height="60" rx="30" fill="url(#paint0_linear_4_3999)"/>
<path d="M50.267 36.7962C49.4304 36.7962 48.6837 36.5825 48.027 36.1552C47.3748 35.7234 46.862 35.1094 46.4886 34.3132C46.1198 33.5125 45.9354 32.5522 45.9354 31.4322C45.9354 30.3121 46.122 29.354 46.4954 28.5579C46.8732 27.7617 47.3905 27.1522 48.0472 26.7294C48.704 26.3066 49.4484 26.0952 50.2805 26.0952C50.9238 26.0952 51.4411 26.2031 51.8324 26.419C52.2282 26.6304 52.5341 26.8778 52.75 27.1612C52.9704 27.4446 53.1413 27.6942 53.2628 27.9102H53.3842V22.7756H55.4016V36.5938H53.4315V34.9812H53.2628C53.1413 35.2016 52.9659 35.4535 52.7365 35.7369C52.5116 36.0202 52.2012 36.2676 51.8054 36.479C51.4096 36.6905 50.8968 36.7962 50.267 36.7962ZM50.7124 35.0756C51.2926 35.0756 51.7829 34.9227 52.1832 34.6168C52.5881 34.3065 52.8939 33.8769 53.1009 33.3281C53.3123 32.7794 53.418 32.1406 53.418 31.4119C53.418 30.6922 53.3145 30.0625 53.1076 29.5227C52.9007 28.983 52.5971 28.5624 52.1967 28.261C51.7964 27.9596 51.3016 27.8089 50.7124 27.8089C50.1051 27.8089 49.5991 27.9664 49.1942 28.2812C48.7894 28.5961 48.4835 29.0257 48.2766 29.57C48.0742 30.1142 47.973 30.7282 47.973 31.4119C47.973 32.1046 48.0765 32.7276 48.2834 33.2809C48.4903 33.8342 48.7962 34.2727 49.201 34.5966C49.6103 34.916 50.1141 35.0756 50.7124 35.0756ZM62.7476 36.8029C61.7265 36.8029 60.8472 36.5848 60.1095 36.1484C59.3763 35.7076 58.8095 35.0891 58.4092 34.293C58.0133 33.4923 57.8154 32.5545 57.8154 31.4794C57.8154 30.4179 58.0133 29.4822 58.4092 28.6726C58.8095 27.8629 59.3673 27.2309 60.0825 26.7766C60.8022 26.3223 61.6433 26.0952 62.6059 26.0952C63.1907 26.0952 63.7574 26.1919 64.3062 26.3853C64.855 26.5787 65.3475 26.8823 65.7838 27.2962C66.2201 27.71 66.5642 28.2475 66.8161 28.9087C67.068 29.5655 67.194 30.3639 67.194 31.304V32.0192H58.9557V30.5078H65.2171C65.2171 29.977 65.1091 29.507 64.8932 29.0977C64.6773 28.6838 64.3737 28.3577 63.9823 28.1193C63.5955 27.8809 63.1412 27.7617 62.6194 27.7617C62.0526 27.7617 61.5579 27.9012 61.135 28.18C60.7167 28.4544 60.3928 28.8143 60.1634 29.2596C59.9385 29.7004 59.8261 30.1795 59.8261 30.6967V31.8775C59.8261 32.5702 59.9475 33.1594 60.1904 33.6452C60.4378 34.131 60.7819 34.5021 61.2227 34.7585C61.6636 35.0104 62.1786 35.1364 62.7678 35.1364C63.1502 35.1364 63.4988 35.0824 63.8137 34.9744C64.1285 34.862 64.4007 34.6955 64.6301 34.4751C64.8595 34.2547 65.0349 33.9826 65.1563 33.6587L67.0658 34.0028C66.9128 34.5651 66.6385 35.0576 66.2426 35.4805C65.8513 35.8988 65.3588 36.2249 64.765 36.4588C64.1758 36.6882 63.5033 36.8029 62.7476 36.8029ZM61.695 24.8469L63.2739 21.7365H65.3992L63.3076 24.8469H61.695ZM73.7978 36.8029C72.7947 36.8029 71.931 36.5758 71.2069 36.1214C70.4872 35.6626 69.9339 35.0307 69.5471 34.2255C69.1602 33.4203 68.9668 32.4982 68.9668 31.4592C68.9668 30.4066 69.1647 29.4777 69.5605 28.6726C69.9564 27.8629 70.5141 27.2309 71.2338 26.7766C71.9535 26.3223 72.8014 26.0952 73.7775 26.0952C74.5647 26.0952 75.2664 26.2414 75.8826 26.5337C76.4989 26.8216 76.9959 27.2264 77.3738 27.7482C77.7561 28.27 77.9833 28.8795 78.0552 29.5767H76.0918C75.9838 29.0909 75.7364 28.6726 75.3496 28.3217C74.9673 27.9709 74.4545 27.7955 73.8113 27.7955C73.249 27.7955 72.7565 27.9439 72.3336 28.2408C71.9153 28.5331 71.5892 28.9515 71.3553 29.4957C71.1214 30.0355 71.0044 30.6742 71.0044 31.4119C71.0044 32.1676 71.1191 32.8198 71.3485 33.3686C71.5779 33.9174 71.9018 34.3424 72.3201 34.6438C72.743 34.9452 73.24 35.0959 73.8113 35.0959C74.1936 35.0959 74.54 35.0262 74.8503 34.8867C75.1652 34.7428 75.4283 34.5381 75.6397 34.2727C75.8556 34.0073 76.0063 33.688 76.0918 33.3146H78.0552C77.9833 33.9848 77.7651 34.5831 77.4007 35.1094C77.0364 35.6357 76.5484 36.0495 75.9366 36.3509C75.3294 36.6522 74.6164 36.8029 73.7978 36.8029ZM84.578 36.8029C83.6064 36.8029 82.7586 36.5803 82.0344 36.1349C81.3102 35.6896 80.7479 35.0666 80.3476 34.266C79.9472 33.4653 79.7471 32.5297 79.7471 31.4592C79.7471 30.3841 79.9472 29.444 80.3476 28.6388C80.7479 27.8337 81.3102 27.2085 82.0344 26.7631C82.7586 26.3178 83.6064 26.0952 84.578 26.0952C85.5496 26.0952 86.3975 26.3178 87.1217 26.7631C87.8459 27.2085 88.4082 27.8337 88.8085 28.6388C89.2088 29.444 89.409 30.3841 89.409 31.4592C89.409 32.5297 89.2088 33.4653 88.8085 34.266C88.4082 35.0666 87.8459 35.6896 87.1217 36.1349C86.3975 36.5803 85.5496 36.8029 84.578 36.8029ZM84.5848 35.1094C85.2145 35.1094 85.7363 34.9429 86.1501 34.6101C86.564 34.2772 86.8698 33.8342 87.0677 33.2809C87.2702 32.7276 87.3714 32.1181 87.3714 31.4524C87.3714 30.7912 87.2702 30.1839 87.0677 29.6307C86.8698 29.0729 86.564 28.6254 86.1501 28.288C85.7363 27.9506 85.2145 27.782 84.5848 27.782C83.9506 27.782 83.4243 27.9506 83.0059 28.288C82.5921 28.6254 82.284 29.0729 82.0816 29.6307C81.8837 30.1839 81.7847 30.7912 81.7847 31.4524C81.7847 32.1181 81.8837 32.7276 82.0816 33.2809C82.284 33.8342 82.5921 34.2772 83.0059 34.6101C83.4243 34.9429 83.9506 35.1094 84.5848 35.1094ZM98.2259 32.2958V26.2301H100.25V36.5938H98.2663V34.799H98.1584C97.92 35.3523 97.5376 35.8133 97.0114 36.1822C96.4896 36.5465 95.8396 36.7287 95.0614 36.7287C94.3957 36.7287 93.8065 36.5825 93.2937 36.2901C92.7854 35.9933 92.3851 35.5547 92.0927 34.9744C91.8048 34.3942 91.6609 33.6767 91.6609 32.8221V26.2301H93.6783V32.5792C93.6783 33.2854 93.8739 33.8477 94.2653 34.266C94.6566 34.6843 95.1649 34.8935 95.7901 34.8935C96.168 34.8935 96.5436 34.799 96.9169 34.6101C97.2947 34.4212 97.6074 34.1355 97.8548 33.7532C98.1067 33.3709 98.2304 32.8851 98.2259 32.2958ZM111.826 26.2301L108.068 36.5938H105.909L102.144 26.2301H104.31L106.935 34.2053H107.043L109.661 26.2301H111.826ZM113.722 36.5938V26.2301H115.672V27.8764H115.78C115.969 27.3187 116.302 26.8801 116.779 26.5607C117.26 26.2369 117.804 26.0749 118.412 26.0749C118.538 26.0749 118.686 26.0794 118.857 26.0884C119.032 26.0974 119.17 26.1087 119.269 26.1222V28.0518C119.188 28.0294 119.044 28.0046 118.837 27.9776C118.63 27.9461 118.423 27.9304 118.216 27.9304C117.739 27.9304 117.314 28.0316 116.941 28.234C116.572 28.4319 116.28 28.7086 116.064 29.0639C115.848 29.4148 115.74 29.8151 115.74 30.2649V36.5938H113.722ZM121.014 36.5938V26.2301H123.032V36.5938H121.014ZM122.033 24.631C121.682 24.631 121.381 24.5141 121.129 24.2802C120.882 24.0418 120.758 23.7584 120.758 23.43C120.758 23.0972 120.882 22.8138 121.129 22.5799C121.381 22.3415 121.682 22.2223 122.033 22.2223C122.384 22.2223 122.683 22.3415 122.931 22.5799C123.182 22.8138 123.308 23.0972 123.308 23.43C123.308 23.7584 123.182 24.0418 122.931 24.2802C122.683 24.5141 122.384 24.631 122.033 24.631ZM125.746 36.5938V26.2301H127.696V27.8764H127.804C127.993 27.3187 128.325 26.8801 128.802 26.5607C129.284 26.2369 129.828 26.0749 130.435 26.0749C130.561 26.0749 130.709 26.0794 130.88 26.0884C131.056 26.0974 131.193 26.1087 131.292 26.1222V28.0518C131.211 28.0294 131.067 28.0046 130.86 27.9776C130.653 27.9461 130.446 27.9304 130.239 27.9304C129.763 27.9304 129.338 28.0316 128.964 28.234C128.595 28.4319 128.303 28.7086 128.087 29.0639C127.871 29.4148 127.763 29.8151 127.763 30.2649V36.5938H125.746ZM141.946 36.7962C141.109 36.7962 140.362 36.5825 139.706 36.1552C139.053 35.7234 138.541 35.1094 138.167 34.3132C137.799 33.5125 137.614 32.5522 137.614 31.4322C137.614 30.3121 137.801 29.354 138.174 28.5579C138.552 27.7617 139.069 27.1522 139.726 26.7294C140.383 26.3066 141.127 26.0952 141.959 26.0952C142.602 26.0952 143.12 26.2031 143.511 26.419C143.907 26.6304 144.213 26.8778 144.429 27.1612C144.649 27.4446 144.82 27.6942 144.941 27.9102H145.063V22.7756H147.08V36.5938H145.11V34.9812H144.941C144.82 35.2016 144.645 35.4535 144.415 35.7369C144.19 36.0202 143.88 36.2676 143.484 36.479C143.088 36.6905 142.575 36.7962 141.946 36.7962ZM142.391 35.0756C142.971 35.0756 143.462 34.9227 143.862 34.6168C144.267 34.3065 144.573 33.8769 144.78 33.3281C144.991 32.7794 145.097 32.1406 145.097 31.4119C145.097 30.6922 144.993 30.0625 144.786 29.5227C144.579 28.983 144.276 28.5624 143.875 28.261C143.475 27.9596 142.98 27.8089 142.391 27.8089C141.784 27.8089 141.278 27.9664 140.873 28.2812C140.468 28.5961 140.162 29.0257 139.955 29.57C139.753 30.1142 139.652 30.7282 139.652 31.4119C139.652 32.1046 139.755 32.7276 139.962 33.2809C140.169 33.8342 140.475 34.2727 140.88 34.5966C141.289 34.916 141.793 35.0756 142.391 35.0756ZM151.491 22.7756V27.6942H149.818V22.7756H151.491ZM157.113 36.8232C156.457 36.8232 155.863 36.7017 155.332 36.4588C154.801 36.2114 154.381 35.8538 154.07 35.386C153.765 34.9182 153.612 34.3447 153.612 33.6655C153.612 33.0807 153.724 32.5994 153.949 32.2216C154.174 31.8437 154.477 31.5446 154.86 31.3242C155.242 31.1038 155.669 30.9374 156.142 30.8249C156.614 30.7125 157.095 30.627 157.586 30.5685C158.206 30.4966 158.71 30.4381 159.097 30.3931C159.484 30.3436 159.765 30.2649 159.94 30.157C160.116 30.049 160.204 29.8736 160.204 29.6307V29.5835C160.204 28.9942 160.037 28.5376 159.704 28.2138C159.376 27.8899 158.886 27.728 158.233 27.728C157.554 27.728 157.019 27.8787 156.628 28.18C156.241 28.4769 155.973 28.8075 155.825 29.1719L153.929 28.7401C154.154 28.1103 154.482 27.602 154.914 27.2152C155.35 26.8239 155.852 26.5405 156.418 26.3651C156.985 26.1851 157.581 26.0952 158.206 26.0952C158.62 26.0952 159.059 26.1446 159.522 26.2436C159.99 26.3381 160.426 26.5135 160.831 26.7699C161.24 27.0263 161.575 27.3929 161.836 27.8697C162.097 28.342 162.228 28.956 162.228 29.7116V36.5938H160.258V35.1768H160.177C160.046 35.4377 159.85 35.6941 159.59 35.946C159.329 36.1979 158.994 36.4071 158.584 36.5735C158.175 36.7399 157.685 36.8232 157.113 36.8232ZM157.552 35.2038C158.11 35.2038 158.586 35.0936 158.982 34.8732C159.383 34.6528 159.686 34.3649 159.893 34.0096C160.105 33.6497 160.21 33.2652 160.21 32.8558V31.5199C160.138 31.5919 159.999 31.6593 159.792 31.7223C159.59 31.7808 159.358 31.8325 159.097 31.8775C158.836 31.918 158.582 31.9562 158.335 31.9922C158.087 32.0237 157.88 32.0507 157.714 32.0732C157.323 32.1226 156.965 32.2058 156.641 32.3228C156.322 32.4397 156.065 32.6084 155.872 32.8288C155.683 33.0447 155.589 33.3326 155.589 33.6925C155.589 34.1918 155.773 34.5696 156.142 34.826C156.511 35.0779 156.981 35.2038 157.552 35.2038ZM171.48 32.2958V26.2301H173.504V36.5938H171.52V34.799H171.412C171.174 35.3523 170.792 35.8133 170.265 36.1822C169.743 36.5465 169.094 36.7287 168.315 36.7287C167.65 36.7287 167.06 36.5825 166.548 36.2901C166.039 35.9933 165.639 35.5547 165.347 34.9744C165.059 34.3942 164.915 33.6767 164.915 32.8221V26.2301H166.932V32.5792C166.932 33.2854 167.128 33.8477 167.519 34.266C167.911 34.6843 168.419 34.8935 169.044 34.8935C169.422 34.8935 169.797 34.799 170.171 34.6101C170.549 34.4212 170.861 34.1355 171.109 33.7532C171.361 33.3709 171.484 32.8851 171.48 32.2958ZM181.052 26.2301V27.8494H175.391V26.2301H181.052ZM176.91 23.7472H178.927V33.5508C178.927 33.9421 178.985 34.2367 179.102 34.4347C179.219 34.6281 179.37 34.7608 179.554 34.8327C179.743 34.9002 179.948 34.9339 180.168 34.9339C180.33 34.9339 180.472 34.9227 180.593 34.9002C180.715 34.8777 180.809 34.8597 180.877 34.8462L181.241 36.5128C181.124 36.5578 180.958 36.6027 180.742 36.6477C180.526 36.6972 180.256 36.7242 179.932 36.7287C179.401 36.7377 178.907 36.6432 178.448 36.4453C177.989 36.2474 177.618 35.9415 177.335 35.5277C177.051 35.1139 176.91 34.5943 176.91 33.9691V23.7472ZM183.284 36.5938V26.2301H185.234V27.8764H185.342C185.531 27.3187 185.864 26.8801 186.34 26.5607C186.822 26.2369 187.366 26.0749 187.973 26.0749C188.099 26.0749 188.248 26.0794 188.419 26.0884C188.594 26.0974 188.731 26.1087 188.83 26.1222V28.0518C188.749 28.0294 188.605 28.0046 188.398 27.9776C188.191 27.9461 187.984 27.9304 187.778 27.9304C187.301 27.9304 186.876 28.0316 186.502 28.234C186.133 28.4319 185.841 28.7086 185.625 29.0639C185.409 29.4148 185.301 29.8151 185.301 30.2649V36.5938H183.284ZM194.671 36.8029C193.65 36.8029 192.771 36.5848 192.033 36.1484C191.3 35.7076 190.733 35.0891 190.333 34.293C189.937 33.4923 189.739 32.5545 189.739 31.4794C189.739 30.4179 189.937 29.4822 190.333 28.6726C190.733 27.8629 191.291 27.2309 192.006 26.7766C192.726 26.3223 193.567 26.0952 194.53 26.0952C195.114 26.0952 195.681 26.1919 196.23 26.3853C196.779 26.5787 197.271 26.8823 197.708 27.2962C198.144 27.71 198.488 28.2475 198.74 28.9087C198.992 29.5655 199.118 30.3639 199.118 31.304V32.0192H190.88V30.5078H197.141C197.141 29.977 197.033 29.507 196.817 29.0977C196.601 28.6838 196.297 28.3577 195.906 28.1193C195.519 27.8809 195.065 27.7617 194.543 27.7617C193.976 27.7617 193.482 27.9012 193.059 28.18C192.641 28.4544 192.317 28.8143 192.087 29.2596C191.862 29.7004 191.75 30.1795 191.75 30.6967V31.8775C191.75 32.5702 191.871 33.1594 192.114 33.6452C192.362 34.131 192.706 34.5021 193.147 34.7585C193.587 35.0104 194.102 35.1364 194.692 35.1364C195.074 35.1364 195.423 35.0824 195.737 34.9744C196.052 34.862 196.324 34.6955 196.554 34.4751C196.783 34.2547 196.959 33.9826 197.08 33.6587L198.99 34.0028C198.837 34.5651 198.562 35.0576 198.166 35.4805C197.775 35.8988 197.283 36.2249 196.689 36.4588C196.1 36.6882 195.427 36.8029 194.671 36.8029ZM209.122 28.7603L207.294 29.0842C207.217 28.8503 207.096 28.6276 206.929 28.4162C206.767 28.2048 206.547 28.0316 206.268 27.8967C205.989 27.7617 205.641 27.6942 205.222 27.6942C204.651 27.6942 204.174 27.8224 203.792 28.0788C203.41 28.3307 203.218 28.6568 203.218 29.0572C203.218 29.4035 203.347 29.6824 203.603 29.8938C203.859 30.1052 204.273 30.2784 204.844 30.4134L206.491 30.7912C207.444 31.0116 208.155 31.3512 208.623 31.81C209.091 32.2688 209.325 32.8648 209.325 33.598C209.325 34.2188 209.145 34.772 208.785 35.2578C208.429 35.7391 207.932 36.117 207.294 36.3913C206.659 36.6657 205.924 36.8029 205.087 36.8029C203.927 36.8029 202.98 36.5555 202.247 36.0607C201.514 35.5614 201.064 34.853 200.897 33.9354L202.847 33.6385C202.969 34.1468 203.218 34.5314 203.596 34.7923C203.974 35.0487 204.467 35.1768 205.074 35.1768C205.735 35.1768 206.264 35.0397 206.659 34.7653C207.055 34.4864 207.253 34.1468 207.253 33.7464C207.253 33.4226 207.132 33.1504 206.889 32.93C206.65 32.7096 206.284 32.5432 205.789 32.4308L204.035 32.0462C203.068 31.8258 202.353 31.4749 201.889 30.9936C201.43 30.5123 201.201 29.9028 201.201 29.1651C201.201 28.5534 201.372 28.0181 201.714 27.5593C202.056 27.1005 202.528 26.7429 203.131 26.4865C203.733 26.2256 204.424 26.0952 205.202 26.0952C206.322 26.0952 207.204 26.3381 207.847 26.8239C208.49 27.3052 208.915 27.9506 209.122 28.7603ZM216.571 40.4801V26.2301H218.541V27.9102H218.71C218.827 27.6942 218.996 27.4446 219.216 27.1612C219.436 26.8778 219.742 26.6304 220.134 26.419C220.525 26.2031 221.042 26.0952 221.685 26.0952C222.522 26.0952 223.269 26.3066 223.925 26.7294C224.582 27.1522 225.097 27.7617 225.471 28.5579C225.848 29.354 226.037 30.3121 226.037 31.4322C226.037 32.5522 225.851 33.5125 225.477 34.3132C225.104 35.1094 224.591 35.7234 223.939 36.1552C223.287 36.5825 222.542 36.7962 221.706 36.7962C221.076 36.7962 220.561 36.6905 220.161 36.479C219.765 36.2676 219.454 36.0202 219.229 35.7369C219.004 35.4535 218.831 35.2016 218.71 34.9812H218.588V40.4801H216.571ZM218.548 31.4119C218.548 32.1406 218.654 32.7794 218.865 33.3281C219.076 33.8769 219.382 34.3065 219.783 34.6168C220.183 34.9227 220.673 35.0756 221.254 35.0756C221.856 35.0756 222.36 34.916 222.765 34.5966C223.17 34.2727 223.476 33.8342 223.683 33.2809C223.894 32.7276 224 32.1046 224 31.4119C224 30.7282 223.896 30.1142 223.689 29.57C223.487 29.0257 223.181 28.5961 222.772 28.2812C222.367 27.9664 221.861 27.8089 221.254 27.8089C220.669 27.8089 220.174 27.9596 219.769 28.261C219.369 28.5624 219.065 28.983 218.858 29.5227C218.651 30.0625 218.548 30.6922 218.548 31.4119ZM228.298 36.5938V26.2301H230.248V27.8764H230.355C230.544 27.3187 230.877 26.8801 231.354 26.5607C231.835 26.2369 232.38 26.0749 232.987 26.0749C233.113 26.0749 233.261 26.0794 233.432 26.0884C233.608 26.0974 233.745 26.1087 233.844 26.1222V28.0518C233.763 28.0294 233.619 28.0046 233.412 27.9776C233.205 27.9461 232.998 27.9304 232.791 27.9304C232.314 27.9304 231.889 28.0316 231.516 28.234C231.147 28.4319 230.855 28.7086 230.639 29.0639C230.423 29.4148 230.315 29.8151 230.315 30.2649V36.5938H228.298ZM239.584 36.8029C238.612 36.8029 237.764 36.5803 237.04 36.1349C236.316 35.6896 235.754 35.0666 235.353 34.266C234.953 33.4653 234.753 32.5297 234.753 31.4592C234.753 30.3841 234.953 29.444 235.353 28.6388C235.754 27.8337 236.316 27.2085 237.04 26.7631C237.764 26.3178 238.612 26.0952 239.584 26.0952C240.555 26.0952 241.403 26.3178 242.128 26.7631C242.852 27.2085 243.414 27.8337 243.814 28.6388C244.215 29.444 244.415 30.3841 244.415 31.4592C244.415 32.5297 244.215 33.4653 243.814 34.266C243.414 35.0666 242.852 35.6896 242.128 36.1349C241.403 36.5803 240.555 36.8029 239.584 36.8029ZM239.591 35.1094C240.22 35.1094 240.742 34.9429 241.156 34.6101C241.57 34.2772 241.876 33.8342 242.074 33.2809C242.276 32.7276 242.377 32.1181 242.377 31.4524C242.377 30.7912 242.276 30.1839 242.074 29.6307C241.876 29.0729 241.57 28.6254 241.156 28.288C240.742 27.9506 240.22 27.782 239.591 27.782C238.956 27.782 238.43 27.9506 238.012 28.288C237.598 28.6254 237.29 29.0729 237.087 29.6307C236.89 30.1839 236.791 30.7912 236.791 31.4524C236.791 32.1181 236.89 32.7276 237.087 33.2809C237.29 33.8342 237.598 34.2772 238.012 34.6101C238.43 34.9429 238.956 35.1094 239.591 35.1094ZM246.667 26.2301H248.684V37.2685C248.684 37.9612 248.558 38.5459 248.306 39.0227C248.059 39.4995 247.69 39.8616 247.2 40.109C246.714 40.3564 246.113 40.4801 245.398 40.4801C245.326 40.4801 245.259 40.4801 245.196 40.4801C245.128 40.4801 245.059 40.4779 244.987 40.4734V38.7393C245.05 38.7393 245.106 38.7393 245.155 38.7393C245.2 38.7393 245.252 38.7393 245.311 38.7393C245.787 38.7393 246.131 38.6112 246.343 38.3548C246.559 38.1029 246.667 37.7363 246.667 37.255V26.2301ZM247.665 24.631C247.314 24.631 247.013 24.5141 246.761 24.2802C246.514 24.0418 246.39 23.7584 246.39 23.43C246.39 23.0972 246.514 22.8138 246.761 22.5799C247.013 22.3415 247.314 22.2223 247.665 22.2223C248.016 22.2223 248.315 22.3415 248.563 22.5799C248.815 22.8138 248.941 23.0972 248.941 23.43C248.941 23.7584 248.815 24.0418 248.563 24.2802C248.315 24.5141 248.016 24.631 247.665 24.631ZM255.865 36.8029C254.844 36.8029 253.964 36.5848 253.227 36.1484C252.493 35.7076 251.927 35.0891 251.526 34.293C251.131 33.4923 250.933 32.5545 250.933 31.4794C250.933 30.4179 251.131 29.4822 251.526 28.6726C251.927 27.8629 252.484 27.2309 253.2 26.7766C253.919 26.3223 254.761 26.0952 255.723 26.0952C256.308 26.0952 256.875 26.1919 257.423 26.3853C257.972 26.5787 258.465 26.8823 258.901 27.2962C259.337 27.71 259.681 28.2475 259.933 28.9087C260.185 29.5655 260.311 30.3639 260.311 31.304V32.0192H252.073V30.5078H258.334C258.334 29.977 258.226 29.507 258.01 29.0977C257.794 28.6838 257.491 28.3577 257.1 28.1193C256.713 27.8809 256.258 27.7617 255.737 27.7617C255.17 27.7617 254.675 27.9012 254.252 28.18C253.834 28.4544 253.51 28.8143 253.281 29.2596C253.056 29.7004 252.943 30.1795 252.943 30.6967V31.8775C252.943 32.5702 253.065 33.1594 253.308 33.6452C253.555 34.131 253.899 34.5021 254.34 34.7585C254.781 35.0104 255.296 35.1364 255.885 35.1364C256.267 35.1364 256.616 35.0824 256.931 34.9744C257.246 34.862 257.518 34.6955 257.747 34.4751C257.977 34.2547 258.152 33.9826 258.274 33.6587L260.183 34.0028C260.03 34.5651 259.756 35.0576 259.36 35.4805C258.968 35.8988 258.476 36.2249 257.882 36.4588C257.293 36.6882 256.62 36.8029 255.865 36.8029ZM267.387 26.2301V27.8494H261.726V26.2301H267.387ZM263.244 23.7472H265.262V33.5508C265.262 33.9421 265.32 34.2367 265.437 34.4347C265.554 34.6281 265.705 34.7608 265.889 34.8327C266.078 34.9002 266.283 34.9339 266.503 34.9339C266.665 34.9339 266.807 34.9227 266.928 34.9002C267.05 34.8777 267.144 34.8597 267.212 34.8462L267.576 36.5128C267.459 36.5578 267.293 36.6027 267.077 36.6477C266.861 36.6972 266.591 36.7242 266.267 36.7287C265.736 36.7377 265.242 36.6432 264.783 36.4453C264.324 36.2474 263.953 35.9415 263.67 35.5277C263.386 35.1139 263.244 34.5943 263.244 33.9691V23.7472ZM277.218 28.7603L275.389 29.0842C275.313 28.8503 275.191 28.6276 275.025 28.4162C274.863 28.2048 274.643 28.0316 274.364 27.8967C274.085 27.7617 273.736 27.6942 273.318 27.6942C272.747 27.6942 272.27 27.8224 271.888 28.0788C271.505 28.3307 271.314 28.6568 271.314 29.0572C271.314 29.4035 271.442 29.6824 271.699 29.8938C271.955 30.1052 272.369 30.2784 272.94 30.4134L274.586 30.7912C275.54 31.0116 276.251 31.3512 276.719 31.81C277.186 32.2688 277.42 32.8648 277.42 33.598C277.42 34.2188 277.24 34.772 276.881 35.2578C276.525 35.7391 276.028 36.117 275.389 36.3913C274.755 36.6657 274.02 36.8029 273.183 36.8029C272.023 36.8029 271.076 36.5555 270.343 36.0607C269.609 35.5614 269.16 34.853 268.993 33.9354L270.943 33.6385C271.064 34.1468 271.314 34.5314 271.692 34.7923C272.07 35.0487 272.562 35.1768 273.17 35.1768C273.831 35.1768 274.359 35.0397 274.755 34.7653C275.151 34.4864 275.349 34.1468 275.349 33.7464C275.349 33.4226 275.227 33.1504 274.985 32.93C274.746 32.7096 274.38 32.5432 273.885 32.4308L272.131 32.0462C271.163 31.8258 270.448 31.4749 269.985 30.9936C269.526 30.5123 269.297 29.9028 269.297 29.1651C269.297 28.5534 269.468 28.0181 269.809 27.5593C270.151 27.1005 270.624 26.7429 271.226 26.4865C271.829 26.2256 272.52 26.0952 273.298 26.0952C274.418 26.0952 275.299 26.3381 275.943 26.8239C276.586 27.3052 277.011 27.9506 277.218 28.7603Z" fill="white"/>
<defs>
<linearGradient id="paint0_linear_4_3999" x1="0" y1="30.5937" x2="329" y2="30.5937" gradientUnits="userSpaceOnUse">
<stop stop-color="#D95DB0"/>
<stop offset="1" stop-color="#3344DC"/>
</linearGradient>
</defs>
</svg>
