<svg width="210" height="277" viewBox="0 0 210 277" fill="none" xmlns="http://www.w3.org/2000/svg">
<g filter="url(#filter0_d_4_4047)">
<g clip-path="url(#clip0_4_4047)">
<path d="M10.5818 6.4375C11.1705 6.4375 11.7003 6.48848 12.1861 6.59243C12.6689 6.69539 13.0807 6.86532 13.4286 7.10022C13.7714 7.33512 14.0393 7.64698 14.2322 8.03882C14.4191 8.42565 14.5121 8.90945 14.5121 9.4812C14.5121 10.1009 14.3722 10.6187 14.0913 11.0315C13.8084 11.4454 13.3916 11.7842 12.8358 12.0461C13.5925 12.265 14.1533 12.6479 14.5251 13.1916C14.8989 13.7404 15.0819 14.3971 15.0819 15.1668C15.0819 15.7915 14.963 16.3283 14.724 16.7791C14.4938 17.2232 14.1598 17.6052 13.7504 17.8926C13.3264 18.1879 12.8527 18.4046 12.352 18.5323C11.8271 18.6701 11.2865 18.7394 10.7437 18.7383H4.78125V6.4375H10.5818ZM10.2309 11.4074C10.7107 11.4074 11.1086 11.2934 11.4224 11.0625C11.7343 10.8346 11.8852 10.4588 11.8852 9.94401C11.8852 9.65813 11.8342 9.42223 11.7343 9.23731C11.6369 9.0594 11.4928 8.91147 11.3175 8.80949C11.134 8.70066 10.9315 8.62773 10.7207 8.59458C10.491 8.55174 10.2577 8.53132 10.024 8.53361H7.4901V11.4074H10.2309ZM10.3819 16.6442C10.6487 16.6442 10.9026 16.6212 11.1415 16.5672C11.3824 16.5152 11.5963 16.4312 11.7783 16.3063C11.9602 16.1863 12.1101 16.0234 12.2181 15.8155C12.327 15.6096 12.38 15.3407 12.38 15.0178C12.38 14.3841 12.2011 13.9333 11.8472 13.6604C11.4924 13.3905 11.0166 13.2566 10.4338 13.2566H7.4901V16.6451H10.3819V16.6442ZM18.9432 16.6032C19.3101 16.961 19.8389 17.1409 20.5266 17.1409C21.0194 17.1409 21.4451 17.016 21.8039 16.7681C22.1579 16.5192 22.3738 16.2533 22.4568 15.9784H24.6108C24.2649 17.05 23.7402 17.8157 23.0224 18.2765C22.3137 18.7393 21.4512 18.9692 20.4436 18.9692C19.7418 18.9692 19.1101 18.8562 18.5443 18.6323C18.0013 18.4208 17.5107 18.0941 17.106 17.6747C16.7081 17.2455 16.4004 16.7407 16.2014 16.1903C15.9826 15.5817 15.8742 14.9389 15.8815 14.2922C15.8815 13.6264 15.9924 13.0037 16.2104 12.4289C16.4172 11.8734 16.7349 11.3656 17.144 10.9366C17.5489 10.5168 18.0287 10.1859 18.5873 9.94301C19.1749 9.69589 19.8072 9.5727 20.4445 9.58116C21.1982 9.58116 21.857 9.7271 22.4228 10.021C22.9713 10.3015 23.447 10.706 23.8121 11.2025C24.1749 11.6953 24.4339 12.26 24.5949 12.8927C24.7558 13.5245 24.8118 14.1842 24.7658 14.8749H18.3375C18.3385 15.5786 18.5753 16.2453 18.9432 16.6032ZM21.754 11.9242C21.4632 11.6023 20.9713 11.4284 20.3696 11.4284C19.9788 11.4284 19.656 11.4933 19.3961 11.6273C19.1583 11.7473 18.9475 11.9143 18.7762 12.1181C18.6258 12.3031 18.5143 12.5166 18.4485 12.7458C18.3907 12.9369 18.3535 13.1336 18.3375 13.3326H22.3178C22.2599 12.7088 22.0458 12.248 21.754 11.9242ZM17.8377 7.26315H22.8246V8.47763H17.8377V7.26315Z" fill="url(#paint0_linear_4_4047)"/>
</g>
<g clip-path="url(#clip1_4_4047)">
<path d="M63.4412 6.4175C62.5686 4.90523 61.3127 3.64971 59.8003 2.7775C58.2673 1.8845 56.5942 1.4375 54.7812 1.4375C52.9683 1.4375 51.2952 1.8845 49.7613 2.7775C48.2283 3.6705 47.0143 4.8845 46.1213 6.4175C45.2283 7.9505 44.7812 9.6245 44.7812 11.4375C44.7812 13.2505 45.2273 14.9245 46.1213 16.4575C46.9936 17.97 48.2495 19.2256 49.7622 20.0975C51.2952 20.9905 52.9683 21.4375 54.7812 21.4375C56.5942 21.4375 58.2673 20.9905 59.8013 20.0975C61.3138 19.2253 62.5696 17.9698 63.4422 16.4575C64.3352 14.9245 64.7812 13.2505 64.7812 11.4375C64.7812 9.6245 64.3352 7.9505 63.4412 6.4175ZM54.7812 3.0975C56.7812 3.0975 58.5532 3.7375 60.1012 5.0165C59.1812 6.1905 57.8153 7.1565 56.0013 7.9165C54.9993 6.1035 53.9132 4.5895 52.7403 3.3765C53.4051 3.19268 54.0915 3.09885 54.7812 3.0975ZM48.2912 6.2375C49.0225 5.30893 49.9477 4.55127 51.0023 4.0175C52.2143 5.2185 53.3272 6.7175 54.3422 8.5175C52.3422 9.1175 50.2283 9.4175 48.0013 9.4175C47.4283 9.4175 46.9952 9.4045 46.7012 9.3775C47.0077 8.23188 47.5492 7.16256 48.2912 6.2375ZM46.4412 11.4375C46.4412 11.3835 46.4442 11.3175 46.4512 11.2375C46.4582 11.1575 46.4612 11.0915 46.4612 11.0375C46.7153 11.0515 47.1023 11.0575 47.6223 11.0575C50.2882 11.0575 52.7682 10.6905 55.0612 9.9575C55.2483 10.3305 55.4422 10.7505 55.6412 11.2175C54.3212 11.5105 52.9672 12.2235 51.5802 13.3575C50.1932 14.4915 49.1813 15.6845 48.5412 16.9375C47.1413 15.3505 46.4412 13.5175 46.4412 11.4375ZM54.7812 19.7775C52.8872 19.7775 51.1873 19.1905 49.6803 18.0185C50.2812 16.8315 51.2043 15.6965 52.4513 14.6175C53.6973 13.5375 54.9342 12.8645 56.1613 12.5975C56.9353 14.7365 57.4587 16.958 57.7212 19.2175C56.7841 19.5837 55.7873 19.7735 54.7812 19.7775ZM61.8612 15.8175C61.2067 16.872 60.3253 17.7674 59.2812 18.4385C59.0413 16.3585 58.5813 14.3315 57.9023 12.3575C58.8343 12.2915 59.6673 12.2575 60.4023 12.2575C61.2013 12.2575 62.0883 12.2915 63.0613 12.3575C62.9307 13.5873 62.5203 14.7709 61.8612 15.8175ZM60.6213 10.8175C59.4613 10.8175 58.3883 10.8645 57.4012 10.9575C57.1922 10.4103 56.9653 9.86999 56.7212 9.3375C58.7872 8.4315 60.2533 7.3315 61.1203 6.0375C62.3203 7.4515 62.9742 9.0645 63.0802 10.8775C62.2682 10.8375 61.4482 10.8175 60.6213 10.8175Z" fill="url(#paint1_linear_4_4047)"/>
</g>
<g clip-path="url(#clip2_4_4047)">
<path d="M86.8279 7.03085C87.9583 7.03085 88.8746 6.11452 88.8746 4.98417C88.8746 3.85383 87.9583 2.9375 86.8279 2.9375C85.6976 2.9375 84.7812 3.85383 84.7812 4.98417C84.7812 6.11452 85.6976 7.03085 86.8279 7.03085Z" fill="url(#paint2_linear_4_4047)"/>
<path d="M90.8068 8.58189V19.9368H94.3323V14.3215C94.3323 12.8399 94.6111 11.4049 96.4482 11.4049C98.2601 11.4049 98.2825 13.0989 98.2825 14.4151V19.9377H101.81V13.7107C101.81 10.6519 101.151 8.30127 97.5764 8.30127C95.8598 8.30127 94.7093 9.24322 94.2388 10.1347H94.1911V8.58189H90.8068ZM85.0615 8.58189H88.5927V19.9368H85.0615V8.58189Z" fill="url(#paint3_linear_4_4047)"/>
</g>
</g>
<defs>
<filter id="filter0_d_4_4047" x="0.78125" y="0.59375" width="213.219" height="283.672" filterUnits="userSpaceOnUse" color-interpolation-filters="sRGB">
<feFlood flood-opacity="0" result="BackgroundImageFix"/>
<feColorMatrix in="SourceAlpha" type="matrix" values="0 0 0 0 0 0 0 0 0 0 0 0 0 0 0 0 0 0 127 0" result="hardAlpha"/>
<feOffset dy="4"/>
<feGaussianBlur stdDeviation="2"/>
<feComposite in2="hardAlpha" operator="out"/>
<feColorMatrix type="matrix" values="0 0 0 0 0 0 0 0 0 0 0 0 0 0 0 0 0 0 0.25 0"/>
<feBlend mode="normal" in2="BackgroundImageFix" result="effect1_dropShadow_4_4047"/>
<feBlend mode="normal" in="SourceGraphic" in2="effect1_dropShadow_4_4047" result="shape"/>
</filter>
<linearGradient id="paint0_linear_4_4047" x1="1.28125" y1="19.4375" x2="19.3256" y2="4.65998" gradientUnits="userSpaceOnUse">
<stop stop-color="#D95DB0"/>
<stop offset="1" stop-color="#3344DC"/>
</linearGradient>
<linearGradient id="paint1_linear_4_4047" x1="44.7812" y1="21.4851" x2="69.2044" y2="10.4127" gradientUnits="userSpaceOnUse">
<stop stop-color="#D95DB0"/>
<stop offset="1" stop-color="#3344DC"/>
</linearGradient>
<linearGradient id="paint2_linear_4_4047" x1="84.7812" y1="7.04059" x2="89.7799" y2="4.77442" gradientUnits="userSpaceOnUse">
<stop stop-color="#D95DB0"/>
<stop offset="1" stop-color="#3344DC"/>
</linearGradient>
<linearGradient id="paint3_linear_4_4047" x1="85.0615" y1="19.9654" x2="102.355" y2="8.68132" gradientUnits="userSpaceOnUse">
<stop stop-color="#D95DB0"/>
<stop offset="1" stop-color="#3344DC"/>
</linearGradient>
<clipPath id="clip0_4_4047">
<rect width="20" height="13" fill="white" transform="translate(4.78125 6.4375)"/>
</clipPath>
<clipPath id="clip1_4_4047">
<rect width="20" height="20" fill="white" transform="translate(44.7812 1.4375)"/>
</clipPath>
<clipPath id="clip2_4_4047">
<rect width="18" height="17" fill="white" transform="translate(84.7812 2.9375)"/>
</clipPath>
</defs>
</svg>
