<svg width="207" height="37" viewBox="0 0 207 37" fill="none" xmlns="http://www.w3.org/2000/svg">
<rect x="0.25" y="0.59375" width="206" height="36" rx="8" fill="url(#paint0_linear_4_4030)"/>
<path d="M17.7699 13.3665V22.0938H15.9247V15.1179H15.8736L13.875 16.3707V14.7344L16.0355 13.3665H17.7699ZM20.4535 22.2045C20.1722 22.2045 19.9308 22.1051 19.729 21.9062C19.5302 21.7045 19.4308 21.4631 19.4308 21.1818C19.4308 20.9034 19.5302 20.6648 19.729 20.4659C19.9308 20.267 20.1722 20.1676 20.4535 20.1676C20.7262 20.1676 20.9648 20.267 21.1694 20.4659C21.3739 20.6648 21.4762 20.9034 21.4762 21.1818C21.4762 21.3693 21.4279 21.5412 21.3313 21.6974C21.2376 21.8509 21.114 21.9744 20.9606 22.0682C20.8072 22.1591 20.6381 22.2045 20.4535 22.2045ZM25.8942 22.2131C25.2578 22.2131 24.6911 22.1037 24.1939 21.8849C23.6996 21.6634 23.3089 21.3594 23.022 20.973C22.7379 20.5838 22.5916 20.1349 22.5831 19.6264H24.4411C24.4524 19.8395 24.522 20.027 24.6499 20.1889C24.7805 20.348 24.9538 20.4716 25.1697 20.5597C25.3857 20.6477 25.6286 20.6918 25.8984 20.6918C26.1797 20.6918 26.4283 20.642 26.6442 20.5426C26.8601 20.4432 27.0291 20.3054 27.1513 20.1293C27.2734 19.9531 27.3345 19.75 27.3345 19.5199C27.3345 19.2869 27.2692 19.081 27.1385 18.902C27.0107 18.7202 26.826 18.5781 26.5845 18.4759C26.3459 18.3736 26.0618 18.3224 25.7322 18.3224H24.9183V16.9673H25.7322C26.0107 16.9673 26.2564 16.919 26.4695 16.8224C26.6854 16.7259 26.853 16.5923 26.9723 16.4219C27.0916 16.2486 27.1513 16.0469 27.1513 15.8168C27.1513 15.598 27.0987 15.4062 26.9936 15.2415C26.8913 15.0739 26.7464 14.9432 26.5589 14.8494C26.3743 14.7557 26.1584 14.7088 25.9112 14.7088C25.6612 14.7088 25.4325 14.7543 25.2251 14.8452C25.0178 14.9332 24.8516 15.0597 24.7266 15.2244C24.6016 15.3892 24.5348 15.5824 24.5263 15.804H22.7578C22.7663 15.3011 22.9098 14.858 23.1882 14.4744C23.4666 14.0909 23.8416 13.7912 24.3132 13.5753C24.7876 13.3565 25.3232 13.2472 25.9197 13.2472C26.522 13.2472 27.049 13.3565 27.5007 13.5753C27.9524 13.794 28.3033 14.0895 28.5533 14.4616C28.8061 14.831 28.9311 15.2457 28.9283 15.706C28.9311 16.1946 28.7791 16.6023 28.4723 16.929C28.1683 17.2557 27.772 17.4631 27.2834 17.5511V17.6193C27.9254 17.7017 28.4141 17.9247 28.7493 18.2884C29.0874 18.6491 29.255 19.1009 29.2521 19.6435C29.255 20.1406 29.1115 20.5824 28.8217 20.9688C28.5348 21.3551 28.1385 21.6591 27.6328 21.8807C27.1271 22.1023 26.5476 22.2131 25.8942 22.2131ZM33.8342 22.2131C33.1779 22.2131 32.5941 22.1065 32.0827 21.8935C31.5742 21.6776 31.1751 21.3835 30.8853 21.0114C30.5955 20.6392 30.4506 20.2173 30.4506 19.7457C30.4506 19.3821 30.533 19.0483 30.6978 18.7443C30.8654 18.4375 31.0927 18.1832 31.3796 17.9815C31.6665 17.777 31.9876 17.6463 32.3427 17.5895V17.5298C31.8768 17.4361 31.4989 17.2102 31.2092 16.8523C30.9194 16.4915 30.7745 16.0724 30.7745 15.5952C30.7745 15.1435 30.9066 14.7415 31.1708 14.3892C31.435 14.0341 31.7972 13.7557 32.2575 13.554C32.7205 13.3494 33.2461 13.2472 33.8342 13.2472C34.4222 13.2472 34.9464 13.3494 35.4066 13.554C35.8697 13.7585 36.2333 14.0384 36.4975 14.3935C36.7617 14.7457 36.8952 15.1463 36.8981 15.5952C36.8952 16.0753 36.7475 16.4943 36.4549 16.8523C36.1623 17.2102 35.7873 17.4361 35.3299 17.5298V17.5895C35.6793 17.6463 35.9961 17.777 36.2802 17.9815C36.5671 18.1832 36.7944 18.4375 36.962 18.7443C37.1325 19.0483 37.2191 19.3821 37.2219 19.7457C37.2191 20.2173 37.0728 20.6392 36.783 21.0114C36.4933 21.3835 36.0927 21.6776 35.5813 21.8935C35.0728 22.1065 34.4904 22.2131 33.8342 22.2131ZM33.8342 20.858C34.1268 20.858 34.3825 20.8054 34.6012 20.7003C34.82 20.5923 34.9904 20.4446 35.1126 20.2571C35.2376 20.0668 35.3001 19.848 35.3001 19.6009C35.3001 19.348 35.2362 19.125 35.1083 18.9318C34.9805 18.7358 34.8072 18.5824 34.5884 18.4716C34.3697 18.358 34.1183 18.3011 33.8342 18.3011C33.5529 18.3011 33.3015 18.358 33.0799 18.4716C32.8583 18.5824 32.6836 18.7358 32.5558 18.9318C32.4308 19.125 32.3683 19.348 32.3683 19.6009C32.3683 19.848 32.4293 20.0668 32.5515 20.2571C32.6737 20.4446 32.8455 20.5923 33.0671 20.7003C33.2887 20.8054 33.5444 20.858 33.8342 20.858ZM33.8342 16.9588C34.0785 16.9588 34.2958 16.9091 34.4862 16.8097C34.6765 16.7102 34.8256 16.5724 34.9336 16.3963C35.0415 16.2202 35.0955 16.017 35.0955 15.7869C35.0955 15.5597 35.0415 15.3608 34.9336 15.1903C34.8256 15.017 34.6779 14.8821 34.4904 14.7855C34.3029 14.6861 34.0842 14.6364 33.8342 14.6364C33.587 14.6364 33.3683 14.6861 33.1779 14.7855C32.9876 14.8821 32.8384 15.017 32.7305 15.1903C32.6254 15.3608 32.5728 15.5597 32.5728 15.7869C32.5728 16.017 32.6268 16.2202 32.7347 16.3963C32.8427 16.5724 32.9918 16.7102 33.1822 16.8097C33.3725 16.9091 33.5898 16.9588 33.8342 16.9588ZM49.0408 16.4219H47.1744C47.1403 16.1804 47.0707 15.9659 46.9656 15.7784C46.8604 15.5881 46.7255 15.4261 46.5607 15.2926C46.396 15.1591 46.2056 15.0568 45.9897 14.9858C45.7766 14.9148 45.5451 14.8793 45.2951 14.8793C44.8434 14.8793 44.4499 14.9915 44.1147 15.2159C43.7795 15.4375 43.5195 15.7614 43.3349 16.1875C43.1502 16.6108 43.0579 17.125 43.0579 17.7301C43.0579 18.3523 43.1502 18.875 43.3349 19.2983C43.5224 19.7216 43.7837 20.0412 44.119 20.2571C44.4542 20.473 44.842 20.581 45.2823 20.581C45.5295 20.581 45.7582 20.5483 45.9684 20.483C46.1815 20.4176 46.3704 20.3224 46.5352 20.1974C46.6999 20.0696 46.8363 19.9148 46.9442 19.733C47.055 19.5511 47.1317 19.3437 47.1744 19.1108L49.0408 19.1193C48.9925 19.5199 48.8718 19.9062 48.6786 20.2784C48.4883 20.6477 48.2312 20.9787 47.9073 21.2713C47.5863 21.5611 47.2028 21.7912 46.7567 21.9616C46.3136 22.1293 45.8121 22.2131 45.2525 22.2131C44.4741 22.2131 43.7781 22.0369 43.1644 21.6847C42.5536 21.3324 42.0707 20.8224 41.7156 20.1548C41.3633 19.4872 41.1871 18.679 41.1871 17.7301C41.1871 16.7784 41.3661 15.9688 41.7241 15.3011C42.082 14.6335 42.5678 14.125 43.1815 13.7756C43.7951 13.4233 44.4854 13.2472 45.2525 13.2472C45.7582 13.2472 46.2269 13.3182 46.6587 13.4602C47.0934 13.6023 47.4783 13.8097 47.8136 14.0824C48.1488 14.3523 48.4215 14.6832 48.6317 15.0753C48.8448 15.4673 48.9812 15.9162 49.0408 16.4219ZM58.3839 17.7301C58.3839 18.6818 58.2035 19.4915 57.8427 20.1591C57.4847 20.8267 56.9961 21.3366 56.3768 21.6889C55.7603 22.0384 55.0671 22.2131 54.2972 22.2131C53.5217 22.2131 52.8256 22.0369 52.2092 21.6847C51.5927 21.3324 51.1055 20.8224 50.7475 20.1548C50.3896 19.4872 50.2106 18.679 50.2106 17.7301C50.2106 16.7784 50.3896 15.9688 50.7475 15.3011C51.1055 14.6335 51.5927 14.125 52.2092 13.7756C52.8256 13.4233 53.5217 13.2472 54.2972 13.2472C55.0671 13.2472 55.7603 13.4233 56.3768 13.7756C56.9961 14.125 57.4847 14.6335 57.8427 15.3011C58.2035 15.9688 58.3839 16.7784 58.3839 17.7301ZM56.5131 17.7301C56.5131 17.1136 56.4208 16.5937 56.2362 16.1705C56.0543 15.7472 55.7972 15.4261 55.4648 15.2074C55.1325 14.9886 54.7433 14.8793 54.2972 14.8793C53.8512 14.8793 53.462 14.9886 53.1296 15.2074C52.7972 15.4261 52.5387 15.7472 52.354 16.1705C52.1722 16.5937 52.0813 17.1136 52.0813 17.7301C52.0813 18.3466 52.1722 18.8665 52.354 19.2898C52.5387 19.7131 52.7972 20.0341 53.1296 20.2528C53.462 20.4716 53.8512 20.581 54.2972 20.581C54.7433 20.581 55.1325 20.4716 55.4648 20.2528C55.7972 20.0341 56.0543 19.7131 56.2362 19.2898C56.4208 18.8665 56.5131 18.3466 56.5131 17.7301ZM59.6996 22.0938V20.7642L62.8061 17.8878C63.0703 17.6321 63.2919 17.402 63.4709 17.1974C63.6527 16.9929 63.7905 16.7926 63.8842 16.5966C63.978 16.3977 64.0249 16.1832 64.0249 15.9531C64.0249 15.6974 63.9666 15.4773 63.8501 15.2926C63.7337 15.1051 63.5746 14.9616 63.3729 14.8622C63.1712 14.7599 62.9425 14.7088 62.6868 14.7088C62.4197 14.7088 62.1868 14.7628 61.9879 14.8707C61.7891 14.9787 61.6357 15.1335 61.5277 15.3352C61.4197 15.5369 61.3658 15.777 61.3658 16.0554H59.6143C59.6143 15.4844 59.7436 14.9886 60.0021 14.5682C60.2607 14.1477 60.6229 13.8224 61.0888 13.5923C61.5547 13.3622 62.0916 13.2472 62.6996 13.2472C63.3246 13.2472 63.8686 13.358 64.3317 13.5795C64.7976 13.7983 65.1598 14.1023 65.4183 14.4915C65.6768 14.8807 65.8061 15.3267 65.8061 15.8295C65.8061 16.1591 65.7408 16.4844 65.6101 16.8054C65.4822 17.1264 65.2536 17.483 64.924 17.875C64.5945 18.2642 64.13 18.7315 63.5305 19.277L62.2564 20.5256V20.5852H65.9212V22.0938H59.6996ZM71.0763 12.9574L68.2638 23.4062H66.6999L69.5124 12.9574H71.0763ZM78.0533 15.5483L75.7649 22.0938H73.7195L71.4311 15.5483H73.3487L74.7081 20.2315H74.7763L76.1314 15.5483H78.0533ZM78.9822 22.0938V15.5483H80.7976V22.0938H78.9822ZM79.8942 14.7045C79.6243 14.7045 79.3928 14.6151 79.1996 14.4361C79.0092 14.2543 78.9141 14.0369 78.9141 13.7841C78.9141 13.5341 79.0092 13.3196 79.1996 13.1406C79.3928 12.9588 79.6243 12.8679 79.8942 12.8679C80.1641 12.8679 80.3942 12.9588 80.5845 13.1406C80.7777 13.3196 80.8743 13.5341 80.8743 13.7841C80.8743 14.0369 80.7777 14.2543 80.5845 14.4361C80.3942 14.6151 80.1641 14.7045 79.8942 14.7045ZM85.2347 22.2216C84.5614 22.2216 83.9819 22.0852 83.4961 21.8125C83.0131 21.5369 82.641 21.1477 82.3796 20.6449C82.1183 20.1392 81.9876 19.5412 81.9876 18.8509C81.9876 18.1776 82.1183 17.5866 82.3796 17.0781C82.641 16.5696 83.0089 16.1733 83.4833 15.8892C83.9606 15.6051 84.5202 15.4631 85.1623 15.4631C85.5941 15.4631 85.9961 15.5327 86.3683 15.6719C86.7433 15.8082 87.07 16.0142 87.3484 16.2898C87.6296 16.5653 87.8484 16.9119 88.0046 17.3295C88.1609 17.7443 88.239 18.2301 88.239 18.7869V19.2855H82.712V18.1605H86.5302C86.5302 17.8991 86.4734 17.6676 86.3597 17.4659C86.2461 17.2642 86.0884 17.1065 85.8867 16.9929C85.6879 16.8764 85.4563 16.8182 85.1921 16.8182C84.9165 16.8182 84.6722 16.8821 84.4592 17.0099C84.2489 17.1349 84.0842 17.304 83.9648 17.517C83.8455 17.7273 83.7844 17.9616 83.7816 18.2202V19.2898C83.7816 19.6136 83.8413 19.8935 83.9606 20.1293C84.0827 20.3651 84.2546 20.5469 84.4762 20.6747C84.6978 20.8026 84.9606 20.8665 85.2646 20.8665C85.4663 20.8665 85.6509 20.8381 85.8185 20.7812C85.9862 20.7244 86.1296 20.6392 86.2489 20.5256C86.3683 20.4119 86.4592 20.2727 86.5217 20.108L88.2006 20.2188C88.1154 20.6222 87.9407 20.9744 87.6765 21.2756C87.4151 21.5739 87.0771 21.8068 86.6623 21.9744C86.2504 22.1392 85.7745 22.2216 85.2347 22.2216ZM90.668 22.0938L88.8867 15.5483H90.7234L91.7376 19.946H91.7972L92.854 15.5483H94.6566L95.7305 19.9205H95.7859L96.783 15.5483H98.6154L96.8384 22.0938H94.9165L93.7915 17.9773H93.7106L92.5856 22.0938H90.668Z" fill="white"/>
<path d="M112.781 3.59375H197.234C200.548 3.59375 203.234 6.28004 203.234 9.59375V27.5938C203.234 30.9075 200.548 33.5938 197.234 33.5938H112.781V3.59375Z" fill="white"/>
<path d="M123.54 21.5938V12.8665H129.42V14.3878H125.385V16.4673H129.118V17.9886H125.385V20.0724H129.438V21.5938H123.54ZM133.811 21.7216C133.14 21.7216 132.564 21.5795 132.081 21.2955C131.6 21.0085 131.231 20.6108 130.973 20.1023C130.717 19.5937 130.589 19.0085 130.589 18.3466C130.589 17.6761 130.718 17.0881 130.977 16.5824C131.238 16.0739 131.609 15.6776 132.089 15.3935C132.569 15.1065 133.14 14.9631 133.802 14.9631C134.373 14.9631 134.873 15.0668 135.302 15.2741C135.731 15.4815 136.071 15.7727 136.321 16.1477C136.571 16.5227 136.708 16.9631 136.734 17.4688H135.021C134.973 17.142 134.845 16.8793 134.637 16.6804C134.433 16.4787 134.164 16.3778 133.832 16.3778C133.551 16.3778 133.305 16.4545 133.095 16.608C132.887 16.7585 132.725 16.9787 132.609 17.2685C132.493 17.5582 132.434 17.9091 132.434 18.321C132.434 18.7386 132.491 19.0937 132.605 19.3864C132.721 19.679 132.885 19.902 133.095 20.0554C133.305 20.2088 133.551 20.2855 133.832 20.2855C134.039 20.2855 134.225 20.2429 134.39 20.1577C134.558 20.0724 134.696 19.9489 134.804 19.7869C134.914 19.6222 134.987 19.4247 135.021 19.1946H136.734C136.706 19.6946 136.569 20.1349 136.325 20.5156C136.083 20.8935 135.75 21.1889 135.324 21.402C134.897 21.6151 134.393 21.7216 133.811 21.7216ZM140.854 21.7216C140.192 21.7216 139.619 21.581 139.136 21.2997C138.656 21.0156 138.286 20.6207 138.024 20.1151C137.763 19.6065 137.632 19.017 137.632 18.3466C137.632 17.6705 137.763 17.0795 138.024 16.5739C138.286 16.0653 138.656 15.6705 139.136 15.3892C139.619 15.1051 140.192 14.9631 140.854 14.9631C141.516 14.9631 142.087 15.1051 142.567 15.3892C143.05 15.6705 143.422 16.0653 143.683 16.5739C143.945 17.0795 144.075 17.6705 144.075 18.3466C144.075 19.017 143.945 19.6065 143.683 20.1151C143.422 20.6207 143.05 21.0156 142.567 21.2997C142.087 21.581 141.516 21.7216 140.854 21.7216ZM140.862 20.3153C141.163 20.3153 141.415 20.2301 141.616 20.0597C141.818 19.8864 141.97 19.6506 142.072 19.3523C142.178 19.054 142.23 18.7145 142.23 18.3338C142.23 17.9531 142.178 17.6136 142.072 17.3153C141.97 17.017 141.818 16.7812 141.616 16.608C141.415 16.4347 141.163 16.348 140.862 16.348C140.558 16.348 140.303 16.4347 140.095 16.608C139.891 16.7812 139.736 17.017 139.631 17.3153C139.528 17.6136 139.477 17.9531 139.477 18.3338C139.477 18.7145 139.528 19.054 139.631 19.3523C139.736 19.6506 139.891 19.8864 140.095 20.0597C140.303 20.2301 140.558 20.3153 140.862 20.3153ZM145.256 21.5938V15.0483H147.071V21.5938H145.256ZM146.168 14.2045C145.898 14.2045 145.666 14.1151 145.473 13.9361C145.283 13.7543 145.188 13.5369 145.188 13.2841C145.188 13.0341 145.283 12.8196 145.473 12.6406C145.666 12.4588 145.898 12.3679 146.168 12.3679C146.438 12.3679 146.668 12.4588 146.858 12.6406C147.051 12.8196 147.148 13.0341 147.148 13.2841C147.148 13.5369 147.051 13.7543 146.858 13.9361C146.668 14.1151 146.438 14.2045 146.168 14.2045ZM150.341 17.8097V21.5938H148.525V15.0483H150.255V16.2031H150.332C150.477 15.8224 150.72 15.5213 151.061 15.2997C151.402 15.0753 151.815 14.9631 152.301 14.9631C152.755 14.9631 153.152 15.0625 153.49 15.2614C153.828 15.4602 154.091 15.7443 154.278 16.1136C154.466 16.4801 154.559 16.9176 154.559 17.4261V21.5938H152.744V17.75C152.747 17.3494 152.645 17.0369 152.437 16.8125C152.23 16.5852 151.944 16.4716 151.581 16.4716C151.336 16.4716 151.12 16.5241 150.933 16.6293C150.748 16.7344 150.603 16.8878 150.498 17.0895C150.396 17.2884 150.343 17.5284 150.341 17.8097ZM158.402 21.7003C157.905 21.7003 157.455 21.5724 157.051 21.3168C156.651 21.0582 156.332 20.679 156.097 20.179C155.864 19.6761 155.747 19.0597 155.747 18.3295C155.747 17.5795 155.868 16.956 156.109 16.4588C156.351 15.9588 156.672 15.5852 157.072 15.3381C157.476 15.0881 157.918 14.9631 158.398 14.9631C158.764 14.9631 159.07 15.0256 159.314 15.1506C159.561 15.2727 159.76 15.4261 159.911 15.6108C160.064 15.7926 160.18 15.9716 160.26 16.1477H160.315V12.8665H162.126V21.5938H160.337V20.5455H160.26C160.175 20.7273 160.054 20.9077 159.898 21.0866C159.744 21.2628 159.544 21.4091 159.297 21.5256C159.053 21.642 158.754 21.7003 158.402 21.7003ZM158.977 20.2557C159.27 20.2557 159.517 20.1761 159.719 20.017C159.923 19.8551 160.08 19.6293 160.188 19.3395C160.298 19.0497 160.354 18.7102 160.354 18.321C160.354 17.9318 160.3 17.5937 160.192 17.3068C160.084 17.0199 159.928 16.7983 159.723 16.642C159.518 16.4858 159.27 16.4077 158.977 16.4077C158.679 16.4077 158.428 16.4886 158.223 16.6506C158.018 16.8125 157.864 17.0369 157.759 17.3239C157.653 17.6108 157.601 17.9432 157.601 18.321C157.601 18.7017 157.653 19.0384 157.759 19.331C157.866 19.6207 158.021 19.848 158.223 20.0128C158.428 20.1747 158.679 20.2557 158.977 20.2557ZM166.602 21.7216C165.929 21.7216 165.349 21.5852 164.863 21.3125C164.38 21.0369 164.008 20.6477 163.747 20.1449C163.485 19.6392 163.355 19.0412 163.355 18.3509C163.355 17.6776 163.485 17.0866 163.747 16.5781C164.008 16.0696 164.376 15.6733 164.85 15.3892C165.328 15.1051 165.887 14.9631 166.529 14.9631C166.961 14.9631 167.363 15.0327 167.735 15.1719C168.11 15.3082 168.437 15.5142 168.716 15.7898C168.997 16.0653 169.216 16.4119 169.372 16.8295C169.528 17.2443 169.606 17.7301 169.606 18.2869V18.7855H164.079V17.6605H167.897C167.897 17.3991 167.841 17.1676 167.727 16.9659C167.613 16.7642 167.456 16.6065 167.254 16.4929C167.055 16.3764 166.824 16.3182 166.559 16.3182C166.284 16.3182 166.039 16.3821 165.826 16.5099C165.616 16.6349 165.451 16.804 165.332 17.017C165.213 17.2273 165.152 17.4616 165.149 17.7202V18.7898C165.149 19.1136 165.208 19.3935 165.328 19.6293C165.45 19.8651 165.622 20.0469 165.843 20.1747C166.065 20.3026 166.328 20.3665 166.632 20.3665C166.833 20.3665 167.018 20.3381 167.186 20.2812C167.353 20.2244 167.497 20.1392 167.616 20.0256C167.735 19.9119 167.826 19.7727 167.889 19.608L169.568 19.7188C169.483 20.1222 169.308 20.4744 169.044 20.7756C168.782 21.0739 168.444 21.3068 168.029 21.4744C167.618 21.6392 167.142 21.7216 166.602 21.7216ZM172.191 15.0483L173.392 17.3366L174.624 15.0483H176.486L174.59 18.321L176.537 21.5938H174.684L173.392 19.331L172.123 21.5938H170.248L172.191 18.321L170.316 15.0483H172.191ZM181.88 21.5938H179.903L182.915 12.8665H185.293L188.302 21.5938H186.325L184.138 14.8608H184.07L181.88 21.5938ZM181.756 18.1634H186.427V19.6037H181.756V18.1634Z" fill="#0A090F"/>
<defs>
<linearGradient id="paint0_linear_4_4030" x1="0.249999" y1="36.5937" x2="142.926" y2="-78.1472" gradientUnits="userSpaceOnUse">
<stop stop-color="#D95DB0"/>
<stop offset="1" stop-color="#3344DC"/>
</linearGradient>
</defs>
</svg>
