<svg width="144" height="96" viewBox="0 0 144 96" fill="none" xmlns="http://www.w3.org/2000/svg">
<path fill-rule="evenodd" clip-rule="evenodd" d="M95.8334 18.6215C93.1839 16.9892 90.0582 16.173 87.0686 16.173C77.6927 16.173 70.5587 23.7906 70.5587 32.5645C70.5587 41.3384 77.6927 48.956 87.0686 48.956C90.0582 48.956 93.1839 48.1399 95.8334 46.5075V48.2079H104.326V0.597656H95.8334V18.6215ZM87.6122 40.9303C82.7882 40.8623 79.391 37.2575 79.391 32.5645C79.391 27.9395 82.7882 24.2667 87.6122 24.1987C92.4362 24.2667 95.8334 27.9395 95.8334 32.5645C95.8334 37.2575 92.4362 40.8623 87.6122 40.9303ZM8.49545 46.2126V63.8061H0V16.2564H8.49545V34.597C9.92265 33.2384 12.5733 31.8119 16.3112 31.8119C23.4474 31.8119 28.6806 37.1103 28.6806 43.9711V63.8061H20.1851V45.7372C20.1851 42.3408 18.2142 39.6236 14.4083 39.6236C11.0101 39.6236 8.49545 42.2729 8.49545 46.2126ZM64.9027 57.5567C61.9125 61.7683 56.8833 64.5532 50.8345 64.5532C40.708 64.5532 33.7077 57.0132 33.7077 48.1826C33.7077 39.4199 40.5041 31.8119 50.6986 31.8119C60.8933 31.8119 68.0296 39.6916 67.0778 50.628H42.7469C43.6984 54.432 46.8926 56.6736 50.8345 56.7415C53.9608 56.6736 56.7473 55.2471 58.1746 52.8017L64.9027 57.5567ZM50.6986 39.4199C46.6887 39.4878 43.9023 41.7973 42.9508 44.922H58.4467C57.5629 42.0011 54.7084 39.4878 50.6986 39.4199ZM143.381 16.9212L118.854 63.9875H108.866L120.349 42.9707L107.372 16.9212H116.815L125.241 34.4009L133.937 16.9212H143.381ZM6.73604 89.1494C6.44318 89.8192 5.27168 90.7605 3.66089 90.7605C1.44344 90.7605 0 89.4006 0 87.7267C0 86.0534 1.35976 84.9865 3.15883 84.9865H5.41812C6.10846 84.9865 6.54777 84.5679 6.54777 83.9824C6.54777 83.2504 5.75283 82.3091 4.14204 82.3091C2.71952 82.3091 1.88275 83.0829 1.48528 84.108L0.33471 83.355C0.920455 81.9532 2.1547 80.8863 4.14204 80.8863C6.58964 80.8863 8.07486 82.4759 8.07486 84.3801V90.5303H6.73604V89.1494ZM1.56895 87.7267C1.56895 88.6058 2.30113 89.3378 3.66089 89.3378C5.52272 89.3378 6.61051 88.1453 6.61051 86.4092V86.2836H3.17975C2.21746 86.2836 1.56895 86.89 1.56895 87.7267ZM15.4516 80.8863C16.7904 80.8863 18.0037 81.4509 18.8614 82.4137V81.1166H20.3258V90.614C20.3258 93.4798 18.4221 95.5926 15.4725 95.5926C13.6316 95.5926 11.9162 94.6723 11.0585 93.1867L12.3765 92.371C12.9412 93.4379 14.1755 94.1281 15.4725 94.1281C17.6063 94.1281 18.8614 92.6222 18.8614 90.614V89.2541C18.0037 90.1954 16.7904 90.7605 15.4516 90.7605C12.7111 90.7605 10.4728 88.7104 10.4728 85.8441C10.4728 82.9573 12.7111 80.8863 15.4516 80.8863ZM12.0417 85.8441C12.0417 87.8523 13.527 89.2959 15.4516 89.2959C17.3552 89.2959 18.8614 87.8523 18.8614 85.8441C18.8614 83.8149 17.3552 82.3509 15.4516 82.3509C13.527 82.3509 12.0417 83.8149 12.0417 85.8441ZM27.725 90.7605C29.545 90.7605 31.1559 89.8401 32.0136 88.3546L30.8211 87.5807C30.1936 88.6476 29.0011 89.2959 27.725 89.2959C26.198 89.2959 24.5662 88.229 24.3152 86.3045H32.3901C32.7666 83.2713 30.5283 80.8863 27.6204 80.8863C24.6917 80.8863 22.7253 83.1666 22.7253 85.8231C22.7253 88.5011 24.88 90.7605 27.725 90.7605ZM24.378 84.9446C24.7127 83.4597 25.8632 82.33 27.6204 82.33C29.4404 82.33 30.6747 83.6475 30.7793 84.9446H24.378ZM36.4161 85.2376V90.5303H34.9517V81.1166H36.2906V82.4969C36.6253 81.8276 37.6712 80.8863 39.3448 80.8863C41.625 80.8863 43.0685 82.5178 43.0685 84.6307V90.5303H41.6041V84.9446C41.6041 83.3341 40.5999 82.3091 39.0938 82.3091C37.5666 82.3091 36.4161 83.4597 36.4161 85.2376ZM50.4524 90.7605C52.2932 90.7605 53.904 89.8401 54.7617 88.3546L53.4857 87.5389C52.8999 88.6058 51.7493 89.2959 50.4524 89.2959C48.5278 89.2959 47.0425 87.8313 47.0425 85.8231C47.0425 83.8149 48.5278 82.3509 50.4524 82.3509C51.7493 82.3509 52.8999 83.0411 53.4857 84.108L54.7617 83.2922C53.904 81.8067 52.2932 80.8863 50.4524 80.8863C47.7119 80.8863 45.4735 82.9573 45.4735 85.8231C45.4735 88.6895 47.7119 90.7605 50.4524 90.7605ZM65.5254 81.1166L58.1409 95.3833H56.4045L59.5008 89.5052L55.2958 81.1166H56.9694L60.3584 87.9569L63.7893 81.1166H65.5254Z" fill="url(#paint0_linear_4_4010)"/>
<defs>
<linearGradient id="paint0_linear_4_4010" x1="-26.4544" y1="80.9113" x2="127.353" y2="45.1024" gradientUnits="userSpaceOnUse">
<stop stop-color="#D95DB0"/>
<stop offset="1" stop-color="#3344DC"/>
</linearGradient>
</defs>
</svg>
